<svg width="741" height="138" viewBox="0 0 741 138" fill="none" xmlns="http://www.w3.org/2000/svg">
<path d="M740.331 114.382C740.331 115.683 739.29 118.025 737.208 121.409C735.256 124.662 733.239 127.33 731.157 129.412C725.562 135.137 718.079 138 708.71 138C696.999 138 687.174 133.771 679.236 125.313C671.429 116.854 667.525 106.379 667.525 93.8868C667.525 80.8741 671.233 70.0085 678.651 61.2899C686.198 52.5714 695.567 48.2122 706.758 48.2122C715.997 48.2122 723.74 50.9448 729.986 56.4102C736.232 61.7454 739.55 68.6421 739.941 77.1004C735.777 77.751 730.246 78.0113 723.35 77.8812L709.686 77.686C708.775 77.686 700.968 77.8812 686.263 78.2716C685.613 82.5658 685.287 86.6648 685.287 90.5686C685.287 103.711 687.76 113.861 692.705 121.018C697.779 128.045 704.871 131.559 713.98 131.559C719.185 131.559 723.349 130.388 726.473 128.045C729.596 125.703 732.979 121.214 736.622 114.577C737.143 113.536 737.859 113.016 738.77 113.016C739.811 113.016 740.331 113.471 740.331 114.382ZM723.35 74.5629C722.829 58.9477 717.233 51.14 706.563 51.14C696.023 51.14 689.451 58.9477 686.849 74.5629H723.35Z" fill="#294534"/>
<path d="M660.644 134.487C660.644 135.528 659.668 136.048 657.716 136.048H655.374C653.031 135.788 649.843 135.658 645.809 135.658C633.057 135.658 625.509 135.788 623.167 136.048H621.801C620.109 136.048 619.263 135.593 619.263 134.682C619.263 134.031 619.589 133.641 620.239 133.511C621.02 133.38 623.557 133.25 627.852 133.12C630.324 132.99 631.756 132.665 632.146 132.144C632.536 131.494 632.731 129.347 632.731 125.703V88.2263C632.731 74.0424 632.211 65.5841 631.17 62.8515C628.958 56.9957 624.533 54.0679 617.897 54.0679C611.391 54.0679 605.925 56.9307 601.501 62.6563C600.2 64.3479 599.549 66.6902 599.549 69.6832L599.744 130.583C599.744 132.144 601.111 132.99 603.843 133.12L609.699 133.315C611 133.315 611.651 133.771 611.651 134.682C611.651 135.593 610.87 136.048 609.309 136.048H606.186C603.323 135.788 598.768 135.658 592.522 135.658C591.091 135.658 587.968 135.723 583.153 135.853C578.468 135.983 575.736 136.048 574.955 136.048H573.784C571.832 136.048 570.856 135.593 570.856 134.682C570.856 133.771 572.027 133.185 574.369 132.925C576.061 132.925 577.688 132.925 579.249 132.925C581.201 132.925 582.372 132.47 582.763 131.559L583.348 128.631V86.0792C583.348 71.2447 583.218 63.0467 582.958 61.4851C582.698 59.9236 581.071 59.1428 578.078 59.1428C577.167 59.1428 575.606 59.273 573.393 59.5332H572.417C569.815 59.5332 568.514 59.0778 568.514 58.1669C568.514 56.9957 569.88 56.4102 572.613 56.4102C576.517 56.28 580.746 55.5643 585.3 54.2631C589.855 52.9618 593.043 51.4653 594.864 49.7737C596.036 48.7327 596.946 48.2122 597.597 48.2122C598.508 48.2122 598.963 49.4484 598.963 51.9208V61.29C605.73 52.5714 614.449 48.2122 625.119 48.2122C634.488 48.2122 641.255 51.6605 645.419 58.5573C647.761 62.4611 648.932 69.8783 648.932 80.809V125.313C648.932 129.477 649.127 131.754 649.518 132.144C650.299 132.925 652.186 133.315 655.178 133.315C655.569 133.315 656.285 133.25 657.326 133.12H658.692C659.993 133.12 660.644 133.576 660.644 134.487Z" fill="#294534"/>
<path d="M560.029 93.4964C560.029 106.119 556.19 116.724 548.512 125.313C540.835 133.771 531.27 138 519.819 138C507.978 138 498.088 133.771 490.15 125.313C482.213 116.724 478.244 106.119 478.244 93.4964C478.244 80.4837 482.082 69.6832 489.76 61.0948C497.568 52.5064 507.262 48.2122 518.843 48.2122C530.555 48.2122 540.314 52.5714 548.122 61.2899C556.06 69.8783 560.029 80.6138 560.029 93.4964ZM542.266 93.3013C542.266 78.9873 540.054 67.8614 535.63 59.9236C532.377 54.0679 526.911 51.14 519.234 51.14C511.947 51.14 506.221 54.9137 502.057 62.4611C498.023 69.8783 496.006 80.2235 496.006 93.4964C496.006 106.639 498.153 116.919 502.447 124.337C506.872 131.624 512.988 135.267 520.795 135.267C526.781 135.267 531.205 132.99 534.068 128.436C539.534 119.847 542.266 108.136 542.266 93.3013Z" fill="#294534"/>
<path d="M475.867 124.141C475.867 125.313 474.24 127.395 470.987 130.387C465.391 135.462 458.755 138 451.077 138C443.92 138 438.52 136.178 434.877 132.535C432.795 130.453 431.754 124.337 431.754 114.187V56.0197C431.623 54.7184 430.908 54.0027 429.606 53.8726H422.189C419.326 53.8726 417.895 53.4172 417.895 52.5063C417.895 51.5954 418.611 51.0749 420.042 50.9448C430.192 50.0339 438.13 45.089 443.855 36.1102C444.636 34.9391 445.612 34.3535 446.783 34.3535C447.694 34.3535 448.15 34.809 448.15 35.7199V36.5006C448.019 37.1513 447.954 38.2573 447.954 39.8189C447.954 45.2842 448.215 48.7976 448.735 50.3592C449.906 50.6194 451.858 50.7496 454.591 50.7496C461.748 50.7496 466.498 50.4242 468.84 49.7736C469.36 49.6435 469.816 49.5784 470.206 49.5784C471.247 49.5784 471.768 50.164 471.768 51.3351C471.768 53.287 466.498 54.263 455.957 54.263C454.135 54.263 451.468 54.1979 447.954 54.0678V90.1781C447.954 108.396 448.41 119.847 449.321 124.532C450.232 129.086 453.225 131.363 458.3 131.363C462.594 131.363 467.408 128.956 472.744 124.141C473.264 123.491 473.85 123.165 474.5 123.165C475.411 123.165 475.867 123.491 475.867 124.141Z" fill="#294534"/>
<path d="M422.88 126.874C422.88 129.086 420.538 131.429 415.853 133.901C411.299 136.243 406.874 137.414 402.58 137.414C393.601 137.414 388.917 132.795 388.526 123.556C383.582 133.185 375.904 138 365.494 138C359.898 138 355.279 136.373 351.635 133.12C347.992 129.737 346.17 125.443 346.17 120.238C346.17 109.567 352.611 101.109 365.494 94.8628C369.918 92.7807 377.596 90.6987 388.526 88.6167V83.7369C388.526 72.2857 387.941 64.7383 386.77 61.0948C384.688 54.4583 380.003 51.14 372.716 51.14C368.161 51.14 364.323 52.3762 361.2 54.8486C358.207 57.3211 356.71 60.4441 356.71 64.2178C356.71 65.2588 357.491 65.7793 359.053 65.7793C360.744 65.7793 362.241 66.5601 363.542 68.1216C364.843 69.6832 365.494 71.4399 365.494 73.3918C365.494 79.1174 362.631 81.9802 356.905 81.9802C353.912 81.9802 351.44 81.0042 349.488 79.0523C347.536 76.9703 346.56 74.3677 346.56 71.2447C346.56 65.1287 348.968 59.8585 353.782 55.4342C359.118 50.6195 366.535 48.2122 376.034 48.2122C390.348 48.2122 399.132 52.116 402.385 59.9236C403.556 62.9165 404.142 68.8373 404.142 77.686V114.187C404.142 120.173 404.207 123.686 404.337 124.727C404.987 129.412 406.874 131.754 409.997 131.754C413.641 131.754 416.634 130.453 418.976 127.85C420.277 126.419 421.253 125.703 421.904 125.703C422.555 125.703 422.88 126.093 422.88 126.874ZM388.526 106.184V91.9349C378.767 94.1471 371.74 97.0749 367.446 100.719C363.282 104.232 361.2 108.982 361.2 114.967C361.2 119.132 362.371 122.58 364.713 125.313C367.185 127.915 370.243 129.216 373.887 129.216C379.482 129.216 383.972 126.093 387.355 119.847C388.136 118.416 388.526 113.861 388.526 106.184Z" fill="#294534"/>
<path d="M338.969 61.4851C338.969 64.4781 338.058 66.9505 336.236 68.9024C334.415 70.8543 332.072 71.8303 329.209 71.8303C326.867 71.8303 324.915 71.1796 323.354 69.8784C321.792 68.447 321.011 66.6902 321.011 64.6082C321.011 62.7864 321.597 61.2249 322.768 59.9236C323.939 58.6223 324.525 57.7114 324.525 57.1909C324.525 55.239 323.094 54.2631 320.231 54.2631C316.587 54.2631 313.464 56.5403 310.862 61.0948C307.869 66.43 306.372 76.3196 306.372 90.7638V129.412C306.372 130.973 306.893 131.949 307.934 132.339C309.105 132.73 312.488 132.99 318.084 133.12C319.515 133.38 320.231 133.901 320.231 134.682C320.231 135.593 319.385 136.048 317.693 136.048C314.7 136.048 311.903 135.983 309.3 135.853C306.697 135.723 301.753 135.658 294.466 135.658C290.692 135.658 287.959 135.723 286.267 135.853C284.576 135.983 282.429 136.048 279.826 136.048C277.744 136.048 276.703 135.593 276.703 134.682C276.703 133.771 277.549 133.315 279.241 133.315H281.973C286.398 133.315 289 132.795 289.781 131.754C290.041 131.233 290.171 128.826 290.171 124.532V70.8543C290.171 63.6973 289.065 59.5983 286.853 58.5573C284.771 57.3861 281.388 56.7355 276.703 56.6054C275.142 56.6054 274.361 56.1499 274.361 55.239C274.361 54.3281 275.011 53.8727 276.313 53.8727H277.679C279.631 53.8727 281.583 54.0028 283.535 54.2631C285.487 54.3932 286.333 54.4583 286.072 54.4583C290.887 54.4583 296.222 53.0919 302.078 50.3593L304.615 49.1881L306.177 48.6025C306.697 51.7256 306.958 54.8486 306.958 57.9717V61.8755C311.122 52.7666 316.978 48.2122 324.525 48.2122C328.689 48.2122 332.137 49.5134 334.87 52.116C337.603 54.5884 338.969 57.7114 338.969 61.4851Z" fill="#294534"/>
<path d="M273.015 61.4851C273.015 64.4781 272.105 66.9505 270.283 68.9024C268.461 70.8543 266.119 71.8303 263.256 71.8303C260.914 71.8303 258.962 71.1796 257.4 69.8784C255.839 68.447 255.058 66.6902 255.058 64.6082C255.058 62.7864 255.643 61.2249 256.815 59.9236C257.986 58.6223 258.571 57.7114 258.571 57.1909C258.571 55.239 257.14 54.2631 254.277 54.2631C250.634 54.2631 247.51 56.5403 244.908 61.0948C241.915 66.43 240.419 76.3196 240.419 90.7638V129.412C240.419 130.973 240.939 131.949 241.98 132.339C243.151 132.73 246.535 132.99 252.13 133.12C253.561 133.38 254.277 133.901 254.277 134.682C254.277 135.593 253.431 136.048 251.74 136.048C248.747 136.048 245.949 135.983 243.346 135.853C240.744 135.723 235.799 135.658 228.512 135.658C224.738 135.658 222.006 135.723 220.314 135.853C218.622 135.983 216.475 136.048 213.873 136.048C211.791 136.048 210.75 135.593 210.75 134.682C210.75 133.771 211.595 133.315 213.287 133.315H216.02C220.444 133.315 223.047 132.795 223.827 131.754C224.088 131.233 224.218 128.826 224.218 124.532V70.8543C224.218 63.6973 223.112 59.5983 220.899 58.5573C218.817 57.3861 215.434 56.7355 210.75 56.6054C209.188 56.6054 208.407 56.1499 208.407 55.239C208.407 54.3281 209.058 53.8727 210.359 53.8727H211.725C213.677 53.8727 215.629 54.0028 217.581 54.2631C219.533 54.3932 220.379 54.4583 220.119 54.4583C224.933 54.4583 230.269 53.0919 236.124 50.3593L238.662 49.1881L240.223 48.6025C240.744 51.7256 241.004 54.8486 241.004 57.9717V61.8755C245.168 52.7666 251.024 48.2122 258.571 48.2122C262.735 48.2122 266.184 49.5134 268.916 52.116C271.649 54.5884 273.015 57.7114 273.015 61.4851Z" fill="#294534"/>
<path d="M213.392 126.874C213.392 129.086 211.05 131.429 206.365 133.901C201.811 136.243 197.387 137.414 193.092 137.414C184.114 137.414 179.429 132.795 179.039 123.556C174.094 133.185 166.416 138 156.006 138C150.411 138 145.791 136.373 142.147 133.12C138.504 129.737 136.682 125.443 136.682 120.238C136.682 109.567 143.123 101.109 156.006 94.8628C160.43 92.7807 168.108 90.6987 179.039 88.6167V83.7369C179.039 72.2857 178.453 64.7383 177.282 61.0948C175.2 54.4583 170.515 51.14 163.228 51.14C158.674 51.14 154.835 52.3762 151.712 54.8486C148.719 57.3211 147.222 60.4441 147.222 64.2178C147.222 65.2588 148.003 65.7793 149.565 65.7793C151.256 65.7793 152.753 66.5601 154.054 68.1216C155.355 69.6832 156.006 71.4399 156.006 73.3918C156.006 79.1174 153.143 81.9802 147.418 81.9802C144.425 81.9802 141.952 81.0042 140 79.0523C138.048 76.9703 137.073 74.3677 137.073 71.2447C137.073 65.1287 139.48 59.8585 144.295 55.4342C149.63 50.6195 157.047 48.2122 166.546 48.2122C180.86 48.2122 189.644 52.116 192.897 59.9236C194.068 62.9165 194.654 68.8373 194.654 77.686V114.187C194.654 120.173 194.719 123.686 194.849 124.727C195.5 129.412 197.387 131.754 200.51 131.754C204.153 131.754 207.146 130.453 209.488 127.85C210.79 126.419 211.766 125.703 212.416 125.703C213.067 125.703 213.392 126.093 213.392 126.874ZM179.039 106.184V91.9349C169.279 94.1471 162.252 97.0749 157.958 100.719C153.794 104.232 151.712 108.982 151.712 114.967C151.712 119.132 152.883 122.58 155.225 125.313C157.698 127.915 160.756 129.216 164.399 129.216C169.995 129.216 174.484 126.093 177.867 119.847C178.648 118.416 179.039 113.861 179.039 106.184Z" fill="#294534"/>
<path d="M126.874 1.95191C126.874 3.25319 125.248 3.83876 121.994 3.70863L117.7 3.51344H114.187C112.105 3.51344 110.868 3.90383 110.478 4.68459C110.088 5.33523 109.892 7.48232 109.892 11.1259V123.556C109.892 130.453 109.827 134.487 109.697 135.658C109.567 136.829 109.177 137.414 108.526 137.414C107.745 137.414 106.835 136.699 105.793 135.267L80.809 98.7666C66.3649 77.5559 48.7977 51.075 28.1075 19.3239L28.3027 128.24C28.4328 129.932 29.4088 131.038 31.2305 131.559C33.0523 131.949 37.4116 132.209 44.3083 132.339C46 132.339 46.8458 132.86 46.8458 133.901C46.8458 135.202 45.1542 135.853 41.7709 135.853C40.5997 135.853 36.8911 135.658 30.645 135.267C28.5629 135.137 26.546 135.072 24.5941 135.072C24.7242 135.072 23.553 135.202 21.0806 135.463C18.7383 135.723 15.0948 135.853 10.1499 135.853H8.19802C5.20509 135.853 3.70863 135.267 3.70863 134.096C3.70863 132.925 5.0099 132.339 7.61245 132.339C15.29 132.209 19.7143 131.754 20.8854 130.973C22.1867 130.062 22.8373 127.264 22.8373 122.58V26.3508C22.8373 15.5502 20.6252 8.7836 16.2008 6.05093C14.1188 4.74965 10.4102 4.09902 5.07496 4.09902C1.69165 4.09902 0 3.44838 0 2.14711C0 0.975962 0.975955 0.390389 2.92786 0.390389C5.53041 0.390389 8.84866 0.455453 12.8826 0.585578C16.9165 0.715704 19.0636 0.780767 19.3239 0.780767C19.7143 0.780767 21.5361 0.715704 24.7892 0.585578C29.0834 0.585578 33.2475 0.520514 37.2815 0.390389L104.622 100.523V13.6634C104.622 9.62943 104.557 7.22207 104.427 6.4413C104.297 5.53041 103.777 4.87977 102.866 4.48939C101.955 3.96888 98.8317 3.70863 93.4964 3.70863C88.8119 3.70863 86.4696 3.12305 86.4696 1.95191C86.4696 0.650637 88.0311 0 91.1542 0H97.9858C99.6775 0 101.499 0 103.451 0C105.533 0.130133 106.769 0.195199 107.16 0.195199C107.29 0.195199 108.461 0.130133 110.673 0C112.755 0 114.707 0 116.529 0H122.58C125.443 0 126.874 0.650637 126.874 1.95191Z" fill="#294534"/>
</svg>
