<?xml version="1.0" encoding="utf-8"?>
<!-- Generator: Adobe Illustrator 28.3.0, SVG Export Plug-In . SVG Version: 6.00 Build 0)  -->
<svg version="1.1" xmlns="http://www.w3.org/2000/svg" xmlns:xlink="http://www.w3.org/1999/xlink" x="0px" y="0px"
	 viewBox="0 0 52.8 19.6" style="enable-background:new 0 0 52.8 19.6;" xml:space="preserve">
<style type="text/css">
	.st0{fill:none;stroke:#1D1D1B;stroke-width:1.3664;stroke-linecap:round;stroke-linejoin:round;stroke-miterlimit:10;}
	.st1{fill:none;stroke:#1D1D1B;stroke-width:1.1926;stroke-linecap:round;stroke-linejoin:round;stroke-miterlimit:10;}
	.st2{fill:none;stroke:#1D1D1B;stroke-width:1.1926;stroke-linecap:round;stroke-linejoin:round;}
	.st3{fill:#1D1D1B;}
	.st4{fill:none;stroke:#1D1D1B;stroke-width:1.25;stroke-linecap:round;stroke-linejoin:round;stroke-miterlimit:10;}
	.st5{fill:none;stroke:#1D1D1B;stroke-width:1.25;stroke-linecap:round;stroke-linejoin:round;}
	.st6{fill:none;stroke:#1D1D1B;stroke-width:1.1183;stroke-linecap:round;stroke-linejoin:round;stroke-miterlimit:10;}
	.st7{fill:none;stroke:#1D1D1B;stroke-width:1.1183;stroke-linecap:round;stroke-linejoin:round;}
	.st8{fill:none;stroke:#1D1D1B;stroke-width:1.139;stroke-linecap:round;stroke-linejoin:round;stroke-miterlimit:10;}
	.st9{fill:none;stroke:#1D1D1B;stroke-width:1.048;stroke-linecap:round;stroke-linejoin:round;}
	.st10{fill:none;stroke:#1D1D1B;stroke-width:1.048;stroke-linecap:round;stroke-linejoin:round;stroke-miterlimit:10;}
	.st11{fill:none;stroke:#1D1D1B;stroke-width:1.2333;stroke-linecap:round;stroke-linejoin:round;}
	.st12{fill:none;stroke:#1D1D1B;stroke-width:1.1655;stroke-linecap:round;stroke-linejoin:round;stroke-miterlimit:10;}
	.st13{fill:none;stroke:#1D1D1B;stroke-width:1.3028;stroke-linecap:round;stroke-linejoin:round;stroke-miterlimit:10;}
	.st14{fill:#272724;}
</style>
<g id="BACKGROUND">
	<g>
		
			<image style="overflow:visible;" width="2384" height="2384" xlink:href="41C745441800065.png"  transform="matrix(0.24 0 0 0.24 98.9396 -245.0189)">
		</image>
	</g>
</g>
<g id="OBJECTS">
	<g>
		<text transform="matrix(1 0 0 1 238.9825 -150.5379)"><tspan x="0" y="0" class="st14" style="font-family:'AntipastoPro-DemiBold'; font-size:16.1957px; letter-spacing:2;">Vintage</tspan><tspan x="77" y="0" class="st14" style="font-family:'AntipastoPro-DemiBold'; font-size:16.1957px; letter-spacing:3;"> </tspan><tspan x="83.8" y="0" class="st14" style="font-family:'AntipastoPro-DemiBold'; font-size:16.1957px; letter-spacing:2;">ornamen</tspan><tspan x="172.9" y="0" class="st14" style="font-family:'AntipastoPro-DemiBold'; font-size:16.1957px; letter-spacing:3;">t</tspan><tspan x="184.7" y="0" class="st14" style="font-family:'AntipastoPro-DemiBold'; font-size:16.1957px; letter-spacing:2;"> collection</tspan></text>
		<rect x="213.8" y="-176.4" class="st0" width="342.4" height="39.8"/>
	</g>
	<g>
		<g>
			<line class="st1" x1="375.4" y1="185.5" x2="251.5" y2="185.5"/>
			<g>
				<g>
					<line class="st2" x1="347.8" y1="191.1" x2="279.2" y2="191.1"/>
					<g>
						<path class="st3" d="M347.7,189.7c0.7,0,1.3,0.6,1.3,1.3c0,0.7-0.6,1.3-1.3,1.3c-0.7,0-1.3-0.6-1.3-1.3
							C346.4,190.3,347,189.7,347.7,189.7z"/>
					</g>
					<g>
						<path class="st3" d="M279.2,189.7c-0.7,0-1.3,0.6-1.3,1.3c0,0.7,0.6,1.3,1.3,1.3c0.7,0,1.3-0.6,1.3-1.3
							C280.6,190.3,280,189.7,279.2,189.7z"/>
					</g>
				</g>
			</g>
			<line class="st1" x1="324.3" y1="196.6" x2="302.6" y2="196.6"/>
		</g>
		<g>
			<g>
				<path class="st2" d="M436.3,193.5c0.5-0.4,0.8-0.9,0.8-1.5c0-1.4-1.1-2.5-2.5-2.5c-1.7,0-3.1,1.4-3.1,3.1c0,2.1,1.7,3.8,3.8,3.8
					c2.6,0,4.8-2.1,4.8-4.8c0-3.3-2.7-6-6-6h-50.5"/>
				<g>
					<path class="st3" d="M436.8,194.8c-0.7,0.3-1.5-0.1-1.7-0.8c-0.3-0.7,0.1-1.5,0.8-1.7c0.7-0.3,1.5,0.1,1.7,0.8
						C437.9,193.7,437.5,194.5,436.8,194.8z"/>
				</g>
			</g>
		</g>
		<g>
			<g>
				<path class="st2" d="M189.2,193.5c-0.5-0.4-0.8-0.9-0.8-1.5c0-1.4,1.1-2.5,2.5-2.5c1.7,0,3.1,1.4,3.1,3.1c0,2.1-1.7,3.8-3.8,3.8
					c-2.6,0-4.8-2.1-4.8-4.8c0-3.3,2.7-6,6-6h50.5"/>
				<g>
					<path class="st3" d="M189.6,192.2c0.7,0.3,1,1,0.8,1.7c-0.3,0.7-1,1-1.7,0.8c-0.7-0.3-1-1-0.8-1.7
						C188.1,192.3,188.9,192,189.6,192.2z"/>
				</g>
			</g>
		</g>
		<g>
			<path class="st1" d="M330.6,165.6c-0.9,0.4-1.9,0-2.2-0.9c-0.5-1.1,0-2.3,1.1-2.8c1.3-0.6,2.9,0,3.5,1.4c0.7,1.7,0,3.6-1.7,4.4
				c-1.1,0.5-2.2,0.4-3.2,0l-0.1,0c-3-1.2-6.5-0.7-9.1,1.6c-2.9,2.6-3.1,7-0.6,9.9c2.1,2.3,5.6,2.5,7.9,0.4c1.8-1.6,2-4.5,0.4-6.3
				c-1.3-1.5-3.6-1.6-5.1-0.3"/>
			<path class="st1" d="M302.4,165.6c0.9,0.4,1.9,0,2.2-0.9c0.5-1.1,0-2.3-1.1-2.8c-1.3-0.6-2.9,0-3.5,1.4c-0.7,1.7,0,3.6,1.7,4.4
				c1.1,0.5,2.2,0.4,3.2,0l0.1,0c3-1.2,6.5-0.7,9.1,1.6c2.9,2.6,3.1,7,0.6,9.9c-2.1,2.3-5.6,2.5-7.9,0.4c-1.8-1.6-2-4.5-0.4-6.3
				c1.3-1.5,3.6-1.6,5.1-0.3"/>
			<rect x="314" y="158.6" transform="matrix(0.7072 -0.7071 0.7071 0.7072 -21.2455 270.9467)" class="st1" width="5" height="5"/>
		</g>
		<g>
			<path class="st1" d="M332.2,173.5c0.1-0.8,0.8-1.3,1.6-1.2c0.9,0.1,1.6,1,1.5,1.9c-0.2,1.2-1.3,2-2.4,1.8c-1.5-0.2-2.5-1.6-2.3-3
				c0.3-1.8,2-3.1,3.8-2.9c2.3,0.3,3.9,2.4,3.6,4.8c-0.1,1-0.5,1.9-1.1,2.6c-1.1,1.4-3.8,2.7-3.8,2.7h30.6c0.6,0,1.2-0.2,1.6-0.7
				l0,0c0.6-0.6,0.6-1.6,0-2.2l0,0c-0.4-0.4-1-0.4-1.4,0l0,0c-0.4,0.4-0.4,1,0,1.4"/>
		</g>
		<g>
			<path class="st1" d="M300.6,173.5c-0.1-0.8-0.8-1.3-1.6-1.2c-0.9,0.1-1.6,1-1.5,1.9c0.2,1.2,1.3,2,2.4,1.8c1.5-0.2,2.5-1.6,2.3-3
				c-0.3-1.8-2-3.1-3.8-2.9c-2.3,0.3-3.9,2.4-3.6,4.8c0.1,1,0.5,1.9,1.1,2.6c1.1,1.4,3.8,2.7,3.8,2.7h-30.6c-0.6,0-1.2-0.2-1.6-0.7
				l0,0c-0.6-0.6-0.6-1.6,0-2.2l0,0c0.4-0.4,1-0.4,1.4,0l0,0c0.4,0.4,0.4,1,0,1.4"/>
		</g>
	</g>
	<g>
		<g>
			<path class="st4" d="M349.3,123.2c-0.6-0.6-0.6-1.5,0-2.2c0.7-0.8,1.9-0.8,2.7,0c0.9,0.9,1,2.4,0,3.4c-1.1,1.2-3,1.2-4.2,0.1
				l-7.5-7.4"/>
			<path class="st4" d="M380,125.5c0,0.8-0.7,1.5-1.5,1.5c-1.1,0-1.9-0.8-1.9-1.9c0-1.3,1-2.4,2.3-2.4c1.6,0,3,1.3,3,2.9
				c0,2.1-1.6,3.7-3.7,3.8h-39.7c-4.2-0.1-7.5-3.5-7.5-7.7c0-3.3,2.8-6,6.1-6c2.7,0,4.8,2.2,4.8,4.9c0,2.1-1.8,3.8-3.9,3.8
				c-1.7,0-3.1-1.4-3.1-3.1c0-1.4,1.1-2.5,2.5-2.4"/>
			<path class="st4" d="M320.7,121.2c2.3-2.3,5.9-2.5,5.9-2.5s-0.1,3.6-2.5,5.9c-2.3,2.3-5.9,2.5-5.9,2.5S318.4,123.5,320.7,121.2z"
				/>
			<path class="st4" d="M336.4,103c0.1,0.9,0,2.5-1.3,3.8c-0.7,0.7-1.1,1.6-1.4,2.4c-0.4,1.5,0.9,2.8,2.4,2.4
				c0.8-0.3,1.7-0.7,2.4-1.4c1.3-1.3,3-1.4,3.8-1.3c0.2,0,0.2-0.2,0-0.3c-0.5-0.3-1.2-0.7-2.1-1.2c0.9-1.9,1.4-3.8,1.4-3.8
				s-1.9,0.5-3.8,1.4c-0.4-0.8-0.8-1.6-1.2-2.1C336.6,102.8,336.4,102.8,336.4,103z"/>
			<line class="st4" x1="321.5" y1="123.9" x2="334.2" y2="111.2"/>
			<line class="st4" x1="333.7" y1="118.3" x2="327.2" y2="111.8"/>
		</g>
		<g>
			<path class="st4" d="M276,123.2c0.6-0.6,0.6-1.5,0-2.2c-0.7-0.8-1.9-0.8-2.7,0c-0.9,0.9-1,2.4,0,3.4c1.1,1.2,3,1.2,4.2,0.1
				l7.5-7.4"/>
			<path class="st4" d="M245.3,125.5c0,0.8,0.7,1.5,1.5,1.5c1.1,0,1.9-0.8,1.9-1.9c0-1.3-1-2.4-2.3-2.4c-1.6,0-3,1.3-3,2.9
				c0,2.1,1.6,3.7,3.7,3.8h39.7c4.2-0.1,7.5-3.5,7.5-7.7c0-3.3-2.8-6-6.1-6c-2.7,0-4.8,2.2-4.8,4.9c0,2.1,1.8,3.8,3.9,3.8
				c1.7,0,3.1-1.4,3.1-3.1c0-1.4-1.1-2.5-2.5-2.4"/>
			<path class="st4" d="M304.6,121.2c-2.3-2.3-5.9-2.5-5.9-2.5s0.1,3.6,2.5,5.9c2.3,2.3,5.9,2.5,5.9,2.5S306.9,123.5,304.6,121.2z"
				/>
			<path class="st4" d="M288.9,103c-0.1,0.9,0,2.5,1.3,3.8c0.7,0.7,1.1,1.6,1.4,2.4c0.4,1.5-0.9,2.8-2.4,2.4
				c-0.8-0.3-1.7-0.7-2.4-1.4c-1.3-1.3-3-1.4-3.8-1.3c-0.2,0-0.2-0.2,0-0.3c0.5-0.3,1.2-0.7,2.1-1.2c-0.9-1.9-1.4-3.8-1.4-3.8
				s1.9,0.5,3.8,1.4c0.4-0.8,0.8-1.6,1.2-2.1C288.7,102.8,288.9,102.8,288.9,103z"/>
			<line class="st4" x1="303.8" y1="123.9" x2="291.1" y2="111.2"/>
			<line class="st4" x1="291.6" y1="118.3" x2="298.1" y2="111.8"/>
		</g>
		
			<rect x="306.7" y="105" transform="matrix(0.7071 -0.7071 0.7071 0.7071 13.3563 253.0237)" class="st4" width="10.8" height="10.8"/>
		<g>
			<g>
				<line class="st5" x1="190.5" y1="133.8" x2="435" y2="133.8"/>
				<g>
					<path class="st3" d="M190.6,135.2c-0.8,0-1.4-0.6-1.4-1.4c0-0.8,0.6-1.4,1.4-1.4c0.8,0,1.4,0.6,1.4,1.4
						C192,134.6,191.4,135.2,190.6,135.2z"/>
				</g>
				<g>
					<path class="st3" d="M434.9,135.2c0.8,0,1.4-0.6,1.4-1.4c0-0.8-0.6-1.4-1.4-1.4c-0.8,0-1.4,0.6-1.4,1.4
						C433.5,134.6,434.1,135.2,434.9,135.2z"/>
				</g>
			</g>
		</g>
		<path class="st4" d="M315.5,110.4c0,4.2-3.5,7.7-3.5,7.7s-3.5-3.4-3.5-7.7c0-4.2,3.5-7.7,3.5-7.7S315.5,106.2,315.5,110.4z"/>
	</g>
	<g>
		<path class="st4" d="M429.5,247.7l-6.7-3.1c-2.3,3.3-11.6,3.1-11.6,3.1h-197c0,0-9.3,0.3-11.6-3.1l-6.7,3.1"/>
		<path class="st4" d="M189.1,245.7l15.4-8.1c0,0,1.8,5,12.6,4.8c10.9-0.2,180.4-0.2,191.3,0c10.9,0.2,12.6-4.8,12.6-4.8l15.4,8.1"
			/>
		<polyline class="st4" points="302.8,242.1 311.7,233.2 320.5,242.1 		"/>
		<polyline class="st4" points="296,242.1 311.7,226.3 327.4,242.1 		"/>
		<polyline class="st4" points="286.6,242.1 299.2,229.5 311.7,242.1 		"/>
		<polyline class="st4" points="311.7,242.1 324.2,229.5 336.7,242.1 		"/>
		<g>
			<line class="st4" x1="275.8" y1="231" x2="286.6" y2="241.9"/>
			<g>
				<path class="st4" d="M286,232.1c0.7,1,0.5,5.5,0.5,5.5s-2.3-2.8-2.9-3.9c-0.7-1-0.5-2,0.2-2.4C284.4,230.9,285.3,231,286,232.1z
					"/>
			</g>
			<g>
				<path class="st4" d="M278.4,238.9c1,0.7,3.9,3.2,3.9,3.2s-4.5,0-5.5-0.6c-1-0.7-1.3-1.6-0.8-2.3
					C276.4,238.4,277.3,238.2,278.4,238.9z"/>
			</g>
			<g>
				<path class="st4" d="M270.6,235.7c1-0.8,5.5-0.9,5.5-0.9s-2.6,2.5-3.6,3.2c-1,0.8-1.9,0.7-2.4,0
					C269.5,237.4,269.7,236.4,270.6,235.7z"/>
			</g>
		</g>
		<g>
			<line class="st4" x1="347.6" y1="231" x2="336.7" y2="241.9"/>
			<g>
				<path class="st4" d="M337.3,232.1c-0.7,1-0.5,5.5-0.5,5.5s2.3-2.8,2.9-3.9c0.7-1,0.5-2-0.2-2.4C339,230.9,338,231,337.3,232.1z"
					/>
			</g>
			<g>
				<path class="st4" d="M344.9,238.9c-1,0.7-3.9,3.2-3.9,3.2s4.5,0,5.5-0.6c1-0.7,1.3-1.6,0.8-2.3
					C346.9,238.4,346,238.2,344.9,238.9z"/>
			</g>
			<g>
				<path class="st4" d="M352.7,235.7c-1-0.8-5.5-0.9-5.5-0.9s2.6,2.5,3.6,3.2c1,0.8,1.9,0.7,2.4,0
					C353.8,237.4,353.7,236.4,352.7,235.7z"/>
			</g>
		</g>
	</g>
	<g>
		<g>
			<g>
				<g>
					<path class="st6" d="M543.1,39c-2,1.2-4.6,0.7-4.6,0.7s0.6-2.6,2.6-3.8c2-1.2,4.6-0.7,4.6-0.7S545.1,37.8,543.1,39z"/>
				</g>
				<g>
					<path class="st6" d="M537.9,47.7c-1.3-3.8,0.7-7.9,0.7-7.9s4.1,2.1,5.4,5.9c1.3,3.8-0.7,7.9-0.7,7.9S539.2,51.5,537.9,47.7z"/>
					<line class="st6" x1="538.6" y1="39.7" x2="540.9" y2="46.6"/>
				</g>
			</g>
			<g>
				<g>
					<path class="st6" d="M556.6,46.7c-2.3,0.6-4.6-0.8-4.6-0.8s1.4-2.3,3.6-2.8c2.3-0.6,4.6,0.8,4.6,0.8S558.9,46.1,556.6,46.7z"/>
				</g>
				<g>
					<path class="st6" d="M549,53.3c-0.1-4,3.1-7.3,3.1-7.3s3.3,3.2,3.3,7.2c0.1,4-3.1,7.3-3.1,7.3S549,57.4,549,53.3z"/>
					<line class="st6" x1="552.1" y1="46" x2="552.2" y2="53.3"/>
				</g>
			</g>
			<g>
				<g>
					<path class="st6" d="M567.1,58.2c-2.3-0.1-4.1-2.1-4.1-2.1s2-1.7,4.3-1.6c2.3,0.1,4.1,2.1,4.1,2.1S569.4,58.4,567.1,58.2z"/>
				</g>
				<g>
					<path class="st6" d="M557.8,62.1c1.2-3.9,5.2-6,5.2-6s2.1,4.1,0.9,7.9c-1.2,3.9-5.2,6-5.2,6S556.6,66,557.8,62.1z"/>
					<line class="st6" x1="563" y1="56.1" x2="560.8" y2="63.1"/>
				</g>
			</g>
			<g>
				<g>
					<path class="st6" d="M573.5,72.4c-2.2-0.9-3.2-3.3-3.2-3.3s2.4-1,4.6-0.2c2.2,0.9,3.2,3.3,3.2,3.3S575.7,73.2,573.5,72.4z"/>
				</g>
				<g>
					<path class="st6" d="M563.4,73.2c2.3-3.3,6.8-4.1,6.8-4.1s0.8,4.5-1.6,7.8c-2.3,3.3-6.8,4.1-6.8,4.1S561.1,76.5,563.4,73.2z"/>
					<line class="st6" x1="570.2" y1="69.1" x2="566" y2="75.1"/>
				</g>
			</g>
			<g>
				<g>
					<path class="st6" d="M575.2,87.8c-1.8-1.5-2.1-4.1-2.1-4.1s2.6-0.2,4.4,1.3c1.8,1.5,2.1,4.1,2.1,4.1S577,89.3,575.2,87.8z"/>
				</g>
				<g>
					<path class="st6" d="M565.4,85.5c3.2-2.4,7.8-1.8,7.8-1.8s-0.7,4.5-3.9,7c-3.2,2.4-7.8,1.8-7.8,1.8S562.1,88,565.4,85.5z"/>
					<line class="st6" x1="573.1" y1="83.7" x2="567.3" y2="88.1"/>
				</g>
			</g>
			<g>
				<g>
					<path class="st6" d="M572.1,103c-1.3-2-0.7-4.6-0.7-4.6s2.6,0.6,3.8,2.6c1.3,2,0.7,4.6,0.7,4.6S573.4,105,572.1,103z"/>
				</g>
				<g>
					<path class="st6" d="M563.4,97.8c3.8-1.3,7.9,0.6,7.9,0.6s-2,4.1-5.8,5.4c-3.8,1.3-7.9-0.6-7.9-0.6S559.6,99.2,563.4,97.8z"/>
					<line class="st6" x1="571.4" y1="98.5" x2="564.5" y2="100.9"/>
				</g>
			</g>
			<g>
				<g>
					<path class="st6" d="M564.4,116.6c-0.6-2.3,0.7-4.6,0.7-4.6s2.3,1.4,2.9,3.6c0.6,2.3-0.7,4.6-0.7,4.6S565,118.8,564.4,116.6z"
						/>
				</g>
				<g>
					<path class="st6" d="M557.8,108.9c4-0.1,7.4,3.1,7.4,3.1s-3.2,3.3-7.2,3.4c-4,0.1-7.4-3.1-7.4-3.1S553.8,109,557.8,108.9z"/>
					<line class="st6" x1="565.1" y1="112" x2="557.9" y2="112.1"/>
				</g>
			</g>
			<g>
				<g>
					<path class="st6" d="M553,127.1c0.1-2.3,2.1-4.1,2.1-4.1s1.7,2,1.6,4.3c-0.1,2.3-2.1,4.1-2.1,4.1S552.8,129.4,553,127.1z"/>
				</g>
				<g>
					<path class="st6" d="M549,117.8c3.9,1.2,6.1,5.2,6.1,5.2s-4.1,2.1-7.9,1c-3.9-1.2-6.1-5.2-6.1-5.2S545.2,116.6,549,117.8z"/>
					<line class="st6" x1="555.1" y1="122.9" x2="548.1" y2="120.8"/>
				</g>
			</g>
			<g>
				<g>
					<path class="st6" d="M538.8,133.5c0.9-2.2,3.3-3.3,3.3-3.3s1,2.4,0.2,4.6c-0.9,2.2-3.3,3.3-3.3,3.3S538,135.7,538.8,133.5z"/>
				</g>
				<g>
					<path class="st6" d="M537.9,123.4c3.3,2.3,4.2,6.8,4.2,6.8s-4.5,0.8-7.8-1.5c-3.3-2.3-4.2-6.8-4.2-6.8S534.6,121.1,537.9,123.4
						z"/>
					<line class="st6" x1="542.1" y1="130.2" x2="536.1" y2="126.1"/>
				</g>
			</g>
			<g>
				<g>
					<path class="st6" d="M508.2,132.2c2-1.3,4.6-0.7,4.6-0.7s-0.6,2.6-2.6,3.8c-2,1.3-4.6,0.7-4.6,0.7S506.2,133.5,508.2,132.2z"/>
				</g>
				<g>
					<path class="st6" d="M513.3,123.5c1.3,3.8-0.6,7.9-0.6,7.9s-4.1-2-5.4-5.8c-1.3-3.8,0.6-7.9,0.6-7.9S512,119.7,513.3,123.5z"/>
					<line class="st6" x1="512.7" y1="131.5" x2="510.3" y2="124.6"/>
				</g>
			</g>
			<g>
				<g>
					<path class="st6" d="M494.6,124.6c2.3-0.6,4.6,0.7,4.6,0.7s-1.4,2.3-3.6,2.9c-2.3,0.6-4.6-0.7-4.6-0.7S492.4,125.2,494.6,124.6
						z"/>
				</g>
				<g>
					<path class="st6" d="M502.2,118c0.1,4-3,7.4-3,7.4s-3.3-3.2-3.4-7.2c-0.1-4,3-7.4,3-7.4S502.1,113.9,502.2,118z"/>
					<line class="st6" x1="499.2" y1="125.3" x2="499" y2="118"/>
				</g>
			</g>
			<g>
				<g>
					<path class="st6" d="M484.1,113.2c2.3,0.1,4.1,2.1,4.1,2.1s-2,1.7-4.3,1.6c-2.3-0.1-4.1-2.1-4.1-2.1S481.7,113.1,484.1,113.2z"
						/>
				</g>
				<g>
					<path class="st6" d="M493.4,109.2c-1.2,3.9-5.2,6.1-5.2,6.1s-2.1-4-1-7.9c1.2-3.9,5.2-6.1,5.2-6.1S494.5,105.3,493.4,109.2z"/>
					<line class="st6" x1="488.2" y1="115.3" x2="490.3" y2="108.3"/>
				</g>
			</g>
			<g>
				<g>
					<path class="st6" d="M477.6,99.1c2.2,0.8,3.3,3.3,3.3,3.3s-2.4,1-4.6,0.2c-2.2-0.8-3.3-3.3-3.3-3.3S475.4,98.2,477.6,99.1z"/>
				</g>
				<g>
					<path class="st6" d="M487.6,98.1c-2.3,3.3-6.8,4.2-6.8,4.2s-0.8-4.5,1.5-7.8c2.3-3.3,6.8-4.2,6.8-4.2S489.9,94.8,487.6,98.1z"
						/>
					<line class="st6" x1="480.9" y1="102.3" x2="485" y2="96.3"/>
				</g>
			</g>
			<g>
				<g>
					<path class="st6" d="M475.7,83.6c1.8,1.5,2.1,4.1,2.1,4.1s-2.6,0.2-4.5-1.2c-1.8-1.5-2.1-4.1-2.1-4.1S473.9,82.2,475.7,83.6z"
						/>
				</g>
				<g>
					<path class="st6" d="M485.6,85.9c-3.2,2.4-7.7,1.9-7.7,1.9s0.6-4.5,3.8-7c3.2-2.4,7.7-1.9,7.7-1.9S488.8,83.4,485.6,85.9z"/>
					<line class="st6" x1="477.9" y1="87.7" x2="483.7" y2="83.3"/>
				</g>
			</g>
			<g>
				<g>
					<path class="st6" d="M478.7,68.4c1.3,2,0.7,4.6,0.7,4.6s-2.6-0.6-3.9-2.5c-1.3-2-0.7-4.6-0.7-4.6S477.5,66.4,478.7,68.4z"/>
				</g>
				<g>
					<path class="st6" d="M487.5,73.5c-3.8,1.3-7.9-0.6-7.9-0.6s2-4.1,5.8-5.5c3.8-1.3,7.9,0.6,7.9,0.6S491.3,72.2,487.5,73.5z"/>
					<line class="st6" x1="479.5" y1="73" x2="486.4" y2="70.5"/>
				</g>
			</g>
			<g>
				<g>
					<path class="st6" d="M486.3,54.8c0.6,2.3-0.7,4.6-0.7,4.6s-2.3-1.4-2.9-3.6c-0.6-2.3,0.7-4.6,0.7-4.6S485.7,52.6,486.3,54.8z"
						/>
				</g>
				<g>
					<path class="st6" d="M493,62.4c-4,0.1-7.4-3-7.4-3s3.2-3.3,7.2-3.4c4-0.1,7.4,3,7.4,3S497,62.3,493,62.4z"/>
					<line class="st6" x1="485.6" y1="59.4" x2="492.9" y2="59.2"/>
				</g>
			</g>
			<g>
				<g>
					<path class="st6" d="M497.7,44.2c-0.1,2.3-2.1,4.1-2.1,4.1s-1.8-2-1.6-4.3c0.1-2.3,2.1-4.1,2.1-4.1S497.8,41.9,497.7,44.2z"/>
				</g>
				<g>
					<path class="st6" d="M501.7,53.5c-3.9-1.1-6.1-5.1-6.1-5.1s4-2.2,7.9-1c3.9,1.1,6.1,5.1,6.1,5.1S505.6,54.7,501.7,53.5z"/>
					<line class="st6" x1="495.6" y1="48.4" x2="502.6" y2="50.4"/>
				</g>
			</g>
			<g>
				<g>
					<path class="st6" d="M511.8,37.7c-0.8,2.2-3.2,3.3-3.2,3.3s-1.1-2.4-0.2-4.6c0.8-2.2,3.2-3.3,3.2-3.3S512.6,35.5,511.8,37.7z"
						/>
				</g>
				<g>
					<path class="st6" d="M512.8,47.8c-3.3-2.3-4.2-6.8-4.2-6.8s4.5-0.8,7.8,1.5c3.3,2.3,4.2,6.8,4.2,6.8S516.1,50,512.8,47.8z"/>
					<line class="st6" x1="508.6" y1="41" x2="514.6" y2="45.1"/>
				</g>
			</g>
		</g>
		<g>
			<g>
				<path class="st7" d="M524.3,133.1c-25.9-0.6-46.7-21.8-46.7-47.9c0-26.5,21.5-47.9,47.9-47.9"/>
				<g>
					<path class="st3" d="M524.3,131.8c0.7,0,1.2,0.6,1.2,1.3c0,0.7-0.6,1.2-1.3,1.2c-0.7,0-1.2-0.6-1.2-1.3
						C523,132.3,523.6,131.8,524.3,131.8z"/>
				</g>
			</g>
		</g>
		<g>
			<g>
				<path class="st7" d="M526.2,37.3c25.9,0.6,46.7,21.8,46.7,47.9c0,26.5-21.5,47.9-47.9,47.9"/>
				<g>
					<path class="st3" d="M526.2,38.6c-0.7,0-1.2-0.6-1.2-1.3c0-0.7,0.6-1.2,1.3-1.2c0.7,0,1.2,0.6,1.2,1.3S526.9,38.7,526.2,38.6z"
						/>
				</g>
			</g>
		</g>
	</g>
	<g>
		<g>
			<path class="st4" d="M524.5,159.4c0,1.6-1.3,2.8-2.8,2.8c-1.6,0-2.8-1.3-2.8-2.8c0-1.6,1.3-2.8,2.8-2.8
				C523.3,156.6,524.5,157.9,524.5,159.4z"/>
			<path class="st8" d="M524.9,159.8c26.9,2.1,47,25.5,45,52.4c-1.7,22.5-18.5,40.3-39.7,44.3"/>
			<g>
				<path class="st6" d="M521.7,150c0,0,9.8,1.1,11.9,10.9C533.6,161,525.6,158.3,521.7,150z"/>
				<path class="st6" d="M533.6,161.4c0,0-9.8,1.1-11.9,10.9C521.7,172.4,529.7,169.7,533.6,161.4z"/>
			</g>
			<g>
				<path class="st6" d="M538.5,152.3c0,0,9.1,3.9,8.2,13.9C546.7,166.3,539.9,161.4,538.5,152.3z"/>
				<path class="st6" d="M546.6,166.7c0,0-9.7-1.8-14.6,7C532,173.7,540.4,173.5,546.6,166.7z"/>
			</g>
			<g>
				<path class="st6" d="M554,159.4c0,0,7.6,6.4,3.7,15.7C557.7,175.2,552.6,168.5,554,159.4z"/>
				<path class="st6" d="M557.5,175.5c0,0-8.8-4.6-16,2.4C541.5,178,549.6,180.2,557.5,175.5z"/>
			</g>
			<g>
				<path class="st6" d="M566.7,170.8c0,0,5.3,8.3-1,16.1C565.6,186.9,562.7,179,566.7,170.8z"/>
				<path class="st6" d="M565.3,187.2c0,0-7-7-16-2.3C549.3,184.8,556.4,189.3,565.3,187.2z"/>
			</g>
			<g>
				<path class="st6" d="M575.5,185.3c0,0,2.7,9.5-5.7,15.1C569.8,200.4,569.3,192,575.5,185.3z"/>
				<path class="st6" d="M569.4,200.6c0,0-4.7-8.7-14.6-6.9C554.8,193.7,560.2,200.1,569.4,200.6z"/>
			</g>
			<g>
				<path class="st6" d="M579.7,201.8c0,0-0.2,9.9-9.9,12.8C569.8,214.6,571.7,206.4,579.7,201.8z"/>
				<path class="st6" d="M569.3,214.6c0,0-1.9-9.7-11.9-10.9C557.4,203.7,560.8,211.4,569.3,214.6z"/>
			</g>
			<g>
				<path class="st6" d="M578.8,218.7c0,0-3.1,9.4-13.2,9.3C565.7,228.1,569.9,220.8,578.8,218.7z"/>
				<path class="st6" d="M565.2,228c0,0,1-9.9-8.2-13.9C557,214.1,557.9,222.4,565.2,228z"/>
			</g>
			<g>
				<path class="st6" d="M573.2,235.6c0,0-5.7,8.1-15.3,5.1C557.9,240.7,564.1,235,573.2,235.6z"/>
				<path class="st6" d="M557.5,240.5c0,0,3.8-9.1-3.8-15.7C553.7,224.8,552.2,233,557.5,240.5z"/>
			</g>
			<g>
				<path class="st6" d="M564.6,249.1c0,0-7.8,6.1-16.1,0.4C548.5,249.5,556.1,245.9,564.6,249.1z"/>
				<path class="st6" d="M548.2,249.2c0,0,6.3-7.6,0.9-16.1C549.1,233.1,545.2,240.5,548.2,249.2z"/>
			</g>
			<g>
				<path class="st6" d="M550.5,259.4c0,0-9.3,3.5-15.6-4.4C535,255.1,543.3,253.8,550.5,259.4z"/>
				<path class="st6" d="M534.8,254.7c0,0,8.3-5.4,5.6-15.1C540.4,239.5,534.5,245.5,534.8,254.7z"/>
			</g>
		</g>
		<g>
			<path class="st4" d="M521.3,255.5c0-1.6,1.3-2.8,2.8-2.8c1.6,0,2.8,1.3,2.8,2.8c0,1.6-1.3,2.8-2.8,2.8
				C522.5,258.3,521.3,257.1,521.3,255.5z"/>
			<path class="st8" d="M520.9,255.1c-26.9-2.1-47-25.5-45-52.4c1.7-22.5,18.5-40.3,39.7-44.3"/>
			<g>
				<path class="st6" d="M524.1,264.9c0,0-9.8-1.1-11.9-10.9C512.2,254,520.2,256.6,524.1,264.9z"/>
				<path class="st6" d="M512.2,253.5c0,0,9.8-1.1,11.9-10.9C524.1,242.6,516.1,245.2,512.2,253.5z"/>
			</g>
			<g>
				<path class="st6" d="M507.3,262.6c0,0-9.1-3.9-8.2-13.9C499.1,248.7,506,253.6,507.3,262.6z"/>
				<path class="st6" d="M499.2,248.3c0,0,9.7,1.8,14.6-7C513.8,241.3,505.4,241.5,499.2,248.3z"/>
			</g>
			<g>
				<path class="st6" d="M491.8,255.5c0,0-7.6-6.4-3.7-15.7C488.1,239.8,493.2,246.5,491.8,255.5z"/>
				<path class="st6" d="M488.4,239.4c0,0,8.8,4.6,16-2.4C504.3,237,496.2,234.7,488.4,239.4z"/>
			</g>
			<g>
				<path class="st6" d="M479.2,244.2c0,0-5.3-8.3,1-16.1C480.2,228.1,483.1,235.9,479.2,244.2z"/>
				<path class="st6" d="M480.5,227.8c0,0,7,7,16,2.3C496.5,230.1,489.4,225.6,480.5,227.8z"/>
			</g>
			<g>
				<path class="st6" d="M470.3,229.7c0,0-2.7-9.5,5.7-15.1C476,214.6,476.5,222.9,470.3,229.7z"/>
				<path class="st6" d="M476.4,214.4c0,0,4.7,8.7,14.6,6.9C491,221.3,485.6,214.9,476.4,214.4z"/>
			</g>
			<g>
				<path class="st6" d="M466.1,213.2c0,0,0.2-9.9,9.9-12.8C476,200.4,474.1,208.6,466.1,213.2z"/>
				<path class="st6" d="M476.5,200.4c0,0,1.9,9.7,11.9,10.9C488.4,211.2,485.1,203.5,476.5,200.4z"/>
			</g>
			<g>
				<path class="st6" d="M467,196.2c0,0,3.1-9.4,13.2-9.3C480.1,186.9,475.9,194.1,467,196.2z"/>
				<path class="st6" d="M480.6,187c0,0-1,9.9,8.2,13.9C488.8,200.9,487.9,192.5,480.6,187z"/>
			</g>
			<g>
				<path class="st6" d="M472.6,179.3c0,0,5.7-8.1,15.3-5.1C487.9,174.3,481.7,179.9,472.6,179.3z"/>
				<path class="st6" d="M488.3,174.5c0,0-3.8,9.1,3.8,15.7C492.1,190.2,493.6,181.9,488.3,174.5z"/>
			</g>
			<g>
				<path class="st6" d="M481.2,165.8c0,0,7.8-6.1,16.1-0.4C497.3,165.4,489.7,169.1,481.2,165.8z"/>
				<path class="st6" d="M497.6,165.8c0,0-6.3,7.6-0.9,16.1C496.7,181.9,500.6,174.4,497.6,165.8z"/>
			</g>
			<g>
				<path class="st6" d="M495.3,155.5c0,0,9.3-3.5,15.6,4.4C510.8,159.9,502.5,161.1,495.3,155.5z"/>
				<path class="st6" d="M511,160.3c0,0-8.3,5.4-5.6,15.1C505.4,175.4,511.3,169.4,511,160.3z"/>
			</g>
		</g>
	</g>
	<g>
		<path class="st4" d="M472.7,0.2c-1.5,0.1-3-0.3-4.3-1.2c-2.5-1.7-3.2-5.1-1.5-7.7c1.4-2,4.1-2.6,6.1-1.2c1.6,1.1,2.1,3.3,1,4.9
			c-0.9,1.3-2.6,1.7-3.9,0.8"/>
		<path class="st4" d="M458.2,8.5c1.2-0.5,1.9-1.9,1.4-3.2c-0.6-1.6-2.4-2.3-4-1.7c-1.9,0.8-2.9,3-2.1,4.9c1,2.4,3.7,3.6,6.2,2.6
			c1.5-0.6,2.7-1.8,3.3-3.2l0.1-0.1c1.8-4.3,5.9-7.4,10.8-7.7c5.5-0.3,10.3,3.9,10.7,9.4c0.3,4.4-3.1,8.2-7.5,8.5
			c-3.5,0.2-6.6-2.5-6.8-6c-0.2-2.8,2-5.3,4.8-5.5"/>
		<path class="st4" d="M480.3,8.5c0,1.6-1.3,2.8-2.8,2.8c-1.6,0-2.8-1.3-2.8-2.8c0-1.6,1.3-2.8,2.8-2.8C479,5.7,480.3,6.9,480.3,8.5
			z"/>
	</g>
	<g>
		<g>
			<path class="st4" d="M411.1-40.1c0,5.6-4.1,10.1-4.1,10.1s-4.1-4.5-4.1-10.1s4.1-10.1,4.1-10.1S411.1-45.7,411.1-40.1z"/>
			<path class="st4" d="M415.3-28.5c-4.2,1.1-8.3-1.2-8.3-1.2s2.6-4,6.8-5c4.2-1.1,8.3,1.2,8.3,1.2S419.5-29.6,415.3-28.5z"/>
			<path class="st4" d="M398.6-28.5c4.2,1.1,8.3-1.2,8.3-1.2s-2.6-4-6.8-5c-4.2-1.1-8.3,1.2-8.3,1.2S394.5-29.6,398.6-28.5z"/>
		</g>
		<path class="st4" d="M409.1-54.8c0,1.2-0.9,2.1-2.1,2.1s-2.1-0.9-2.1-2.1s0.9-2.1,2.1-2.1S409.1-56,409.1-54.8z"/>
	</g>
	<g>
		<path class="st4" d="M426.2-1c-1,1.7-3.6,2.3-5.3-0.1c-0.6-0.9-0.9-2-0.6-3c0.6-2.4,3.1-3.8,5.5-3.3c3.1,0.7,5,3.8,4.2,6.9
			c-0.9,3.8-4.8,6.2-8.6,5.3c-4.1-1-6.9-4.6-6.8-8.7v-4.9v4.9c0,4-2.7,7.7-6.8,8.7c-3.8,0.9-7.7-1.5-8.6-5.3
			c-0.7-3.1,1.2-6.1,4.2-6.9c2.4-0.6,4.8,0.9,5.5,3.3c0.3,1,0,2.2-0.6,3c-1.7,2.3-4.3,1.8-5.3,0.1"/>
		<path class="st4" d="M405.7,5l2.2,0.2c4.1,1,6.9,4.6,6.8,8.7v2.4v-2.4c0-4,2.7-7.7,6.8-8.7l2.5-0.3"/>
	</g>
	<g>
		<g>
			<g>
				<path class="st5" d="M412.2-75.4c0.5,0.8,1.3,1.3,2.3,1.3c1.8,0,3.3-1.5,3.3-3.3c0-2.3-1.9-4.1-4.1-4.1c-2.9,0-5.2,2.3-5.2,5.2
					c0,3.6,2.9,6.5,6.5,6.5c4.5,0,8.1-3.6,8.1-8.1c0-5.6-4.5-10.1-10.1-10.1h-9.7"/>
				<g>
					<path class="st3" d="M410.8-75c-0.2-0.7,0.2-1.5,1-1.7c0.7-0.2,1.5,0.2,1.7,1c0.2,0.7-0.2,1.5-1,1.7
						C411.8-73.8,411.1-74.2,410.8-75z"/>
				</g>
			</g>
		</g>
		<g>
			<g>
				<path class="st5" d="M412.2-100.7c0.5-0.8,1.3-1.3,2.3-1.3c1.8,0,3.3,1.5,3.3,3.3c0,2.3-1.9,4.1-4.1,4.1c-2.9,0-5.2-2.3-5.2-5.2
					c0-3.6,2.9-6.5,6.5-6.5c4.5,0,8.1,3.6,8.1,8.1c0,5.6-4.5,10.1-10.1,10.1h-9.7"/>
				<g>
					<path class="st3" d="M413.6-100.3c-0.2,0.7-1,1.2-1.7,1c-0.7-0.2-1.2-1-1-1.7c0.2-0.7,1-1.2,1.7-1
						C413.3-101.9,413.8-101.1,413.6-100.3z"/>
				</g>
			</g>
		</g>
	</g>
	<g>
		<path class="st4" d="M353.2-49.5c0,3.2-2.2,6-5.4,6.8c-3,0.7-6-1.1-6.7-4.1c-0.6-2.4,0.9-4.8,3.3-5.4c1.9-0.4,3.8,0.7,4.3,2.6
			c0.2,0.8,0,1.7-0.5,2.4c-1.3,1.8-3.4,1.4-4.2,0.1"/>
		<path class="st4" d="M362.3-47.9c-0.8,1.4-2.8,1.8-4.2-0.1c-0.5-0.7-0.7-1.6-0.5-2.4c0.5-1.9,2.4-3,4.3-2.6c2.4,0.6,3.9,3,3.3,5.4
			c-0.7,3-3.7,4.9-6.7,4.1c-3.2-0.8-5.4-3.6-5.4-6.8"/>
		<path class="st4" d="M353.4-35.6c0-3.2,2.2-6,5.4-6.8c3-0.7,6,1.1,6.7,4.1c0.6,2.4-0.9,4.8-3.3,5.4c-1.9,0.4-3.8-0.7-4.3-2.6
			c-0.2-0.8,0-1.7,0.5-2.4c1.3-1.8,3.4-1.4,4.2-0.1"/>
		<path class="st4" d="M344.2-37.3c0.8-1.4,2.8-1.8,4.2,0.1c0.5,0.7,0.7,1.6,0.5,2.4c-0.5,1.9-2.4,3-4.3,2.6c-2.4-0.6-3.9-3-3.3-5.4
			c0.7-3,3.7-4.9,6.7-4.1c3.2,0.8,5.4,3.6,5.4,6.8"/>
	</g>
	<g>
		<g>
			<g>
				<path class="st5" d="M561.2-94.1c-1.3,0.6-2.8,0-3.4-1.3c-0.7-1.6,0-3.5,1.6-4.2c2-0.9,4.4,0,5.2,2.1c1.1,2.5-0.1,5.5-2.6,6.6
					c-1.6,0.7-3.3,0.7-4.8,0.1l-0.2-0.1c-4.5-1.8-9.8-1-13.7,2.4c-4.3,3.9-4.7,10.5-0.8,14.9c3.1,3.5,8.4,3.8,11.9,0.7
					c2.8-2.5,3-6.7,0.5-9.5c-1.7-1.9-4.4-2.3-6.5-1.2"/>
				<g>
					<path class="st3" d="M547.9-85c-0.6,0.4-0.8,1.3-0.4,2c0.4,0.6,1.3,0.8,2,0.4c0.7-0.4,0.8-1.3,0.4-2
						C549.4-85.2,548.5-85.4,547.9-85z"/>
				</g>
			</g>
		</g>
		<g>
			<g>
				<path class="st5" d="M518.8-94.1c1.3,0.6,2.8,0,3.4-1.3c0.7-1.6,0-3.5-1.6-4.2c-2-0.9-4.4,0-5.2,2.1c-1.1,2.5,0,5.5,2.6,6.6
					c1.6,0.7,3.3,0.7,4.8,0.1l0.2-0.1c4.5-1.8,9.8-1,13.7,2.4c4.3,3.9,4.7,10.5,0.8,14.9c-3.1,3.5-8.4,3.8-11.9,0.7
					c-2.8-2.5-3-6.7-0.5-9.5c1.7-1.9,4.4-2.3,6.5-1.2"/>
				<g>
					<path class="st3" d="M530.6-82.6c0.6,0.4,1.5,0.2,2-0.4s0.2-1.5-0.4-2c-0.7-0.4-1.5-0.2-2,0.4
						C529.7-83.9,529.9-83.1,530.6-82.6z"/>
				</g>
			</g>
		</g>
		<polygon class="st4" points="545.3,-100.9 540,-84.1 534.7,-100.9 540,-106.2 		"/>
	</g>
	<g>
		<g>
			<g>
				<path class="st5" d="M279.1,2.3c-0.5-0.5-0.8-1.2-0.7-2c0.2-1.6,1.7-2.6,3.2-2.4c1.9,0.3,3.3,2.1,3,4c-0.3,2.4-2.6,4.1-5,3.8
					c-3-0.4-5.2-3.2-4.8-6.3c0.5-3.8,4-6.5,7.8-5.9c4.8,0.7,8.1,5,7.4,9.8c-0.3,2-1.1,3.9-2.3,5.3c-2.3,2.9-7.8,5.5-7.8,5.5h28.9
					c1.2,0,2.4-0.5,3.2-1.3c1.2-1.2,1.2-3.2,0-4.5c-0.8-0.8-2.1-0.8-3,0c-0.8,0.8-0.8,2.1,0,3"/>
				<g>
					<path class="st3" d="M279.7,1c0.7,0.3,1,1.2,0.6,1.9c-0.3,0.7-1.2,1-1.9,0.6c-0.7-0.3-1-1.2-0.6-1.9C278.1,0.9,279,0.6,279.7,1
						z"/>
				</g>
			</g>
		</g>
	</g>
	<g>
		<path class="st4" d="M343.5-90.4L343.5-90.4c2.5,0,4.4,2,4.4,4.4v0.1c0,2.5-2,4.4-4.4,4.4l0,0c-2.6,0-4.7-2.1-4.7-4.7l0,0
			c0-3.5,1.4-6.8,3.8-9.2l10.8-10.8l11.4,11.4"/>
		<path class="st4" d="M363.3-90.4L363.3-90.4c-2.5,0-4.4,2-4.4,4.4v0.1c0,2.5,2,4.4,4.4,4.4l0,0c2.6,0,4.7-2.1,4.7-4.7l0,0
			c0-3.5-1.4-6.8-3.8-9.2l-10.8-10.8L342-94.8"/>
		<polygon class="st4" points="357.5,-91.2 353.3,-85.2 349.1,-91.2 353.3,-97.2 		"/>
	</g>
	<g>
		<path class="st4" d="M227.8,3.7c0,5.1-4.1,9.2-9.2,9.2s-9.2-4.1-9.2-9.2c0-5.1,4.1-9.2,9.2-9.2S227.8-1.3,227.8,3.7z"/>
		<g>
			<path class="st4" d="M215.2,3.7c0,0-5,6-11.2,6c-6.2,0-11.2-6-11.2-6s5-6,11.2-6C210.2-2.2,215.2,3.7,215.2,3.7z"/>
			<path class="st4" d="M215.2,3.7c1.6,1.8,3.5,4.1,3.4,9.2"/>
		</g>
		<g>
			<path class="st4" d="M222,3.7c0,0,5,6,11.2,6c6.2,0,11.2-6,11.2-6s-5-6-11.2-6C227-2.2,222,3.7,222,3.7z"/>
			<path class="st4" d="M222,3.7c-1.6,1.8-3.5,4.1-3.4,9.2"/>
		</g>
		<g>
			<path class="st4" d="M215.2,3.7c1.6-1.8,3.5-4.1,3.4-9.2"/>
		</g>
		<g>
			<path class="st4" d="M222,3.7c-1.6-1.8-3.5-4.1-3.4-9.2"/>
		</g>
	</g>
	<g>
		<g>
			<path class="st4" d="M518.4-42.6c0,0-10.8,6-14.1,6c-3.3,0-6-2.7-6-6c0-3.3,2.7-6,6-6C507.7-48.6,518.4-42.6,518.4-42.6z"/>
			<path class="st4" d="M536.2-42.6c0,0,10.8-6,14.1-6c3.3,0,6,2.7,6,6c0,3.3-2.7,6-6,6C547-36.6,536.2-42.6,536.2-42.6z"/>
			<path class="st4" d="M527.3-33.7L527.3-33.7c0-4.9-4-8.9-8.9-8.9v0c4.9,0,8.9-4,8.9-8.9h0c0,4.9,4,8.9,8.9,8.9v0
				C531.3-42.6,527.3-38.6,527.3-33.7z"/>
		</g>
		<g>
			<path class="st4" d="M527.3-42.6c0,0-10.8,6-14.1,6c-3.3,0-6-2.7-6-6c0-3.3,2.7-6,6-6C516.6-48.6,527.3-42.6,527.3-42.6z"/>
			<path class="st4" d="M545.1-42.6c0,0,10.8-6,14.1-6c3.3,0,6,2.7,6,6c0,3.3-2.7,6-6,6C555.8-36.6,545.1-42.6,545.1-42.6z"/>
			<path class="st4" d="M536.2-33.7L536.2-33.7c0-4.9-4-8.9-8.9-8.9v0c4.9,0,8.9-4,8.9-8.9h0c0,4.9,4,8.9,8.9,8.9v0
				C540.2-42.6,536.2-38.6,536.2-33.7z"/>
		</g>
	</g>
	<g>
		
			<rect x="211.6" y="-48.8" transform="matrix(0.7071 -0.7071 0.7071 0.7071 93.9207 141.5879)" class="st4" width="12.5" height="12.5"/>
		
			<rect x="206.8" y="-53.7" transform="matrix(0.7071 -0.7071 0.7071 0.7071 93.9249 141.5907)" class="st4" width="22.2" height="22.2"/>
		
			<rect x="196.5" y="-51.4" transform="matrix(0.7071 -0.7071 0.7071 0.7071 90.2614 132.7463)" class="st4" width="17.7" height="17.7"/>
		
			<rect x="221.5" y="-51.4" transform="matrix(0.7071 -0.7071 0.7071 0.7071 97.5883 150.4351)" class="st4" width="17.7" height="17.7"/>
	</g>
	<g>
		<path class="st4" d="M227.5-95.3c0,6-4.9,10.9-10.9,10.9c-6,0-10.9-4.9-10.9-10.9c0-6,4.9-10.9,10.9-10.9
			C222.6-106.2,227.5-101.3,227.5-95.3z"/>
		<g>
			<path class="st4" d="M240.4-95.3c0,5-6.3,9-14.1,9c-7.8,0-14.1-4-14.1-9c0-5,6.3-9,14.1-9C234.1-104.4,240.4-100.3,240.4-95.3z"
				/>
			<path class="st4" d="M221-95.3c0,5-6.3,9-14.1,9c-7.8,0-14.1-4-14.1-9c0-5,6.3-9,14.1-9C214.7-104.4,221-100.3,221-95.3z"/>
		</g>
	</g>
	<g>
		<path class="st4" d="M270.7-88.8L270.7-88.8c9.6,0,17.3-7.8,17.3-17.3l0,0c0,9.6,7.8,17.3,17.3,17.3v0c-9.6,0-17.3,7.8-17.3,17.3
			l0,0C288-81.1,280.3-88.8,270.7-88.8z"/>
		<path class="st4" d="M284.3-88.8L284.3-88.8c2.1,0,3.8-1.7,3.8-3.8l0,0c0,2.1,1.7,3.8,3.8,3.8l0,0c-2.1,0-3.8,1.7-3.8,3.8l0,0
			C288-87.2,286.3-88.8,284.3-88.8z"/>
		<path class="st4" d="M296.2-76c-2.9-2.9-3-7.6-3-7.6s4.7,0,7.6,3c2.9,2.9,3,7.6,3,7.6S299.1-73.1,296.2-76z"/>
		<path class="st4" d="M275.2-97c-2.9-2.9-3-7.6-3-7.6s4.7,0,7.6,3c2.9,2.9,3,7.6,3,7.6S278.1-94.1,275.2-97z"/>
		<path class="st4" d="M300.9-96.8c-2.9,2.9-7.6,3-7.6,3s0-4.7,3-7.6c2.9-2.9,7.6-3,7.6-3S303.8-99.8,300.9-96.8z"/>
		<path class="st4" d="M280-76c-2.9,2.9-7.6,3-7.6,3s0-4.7,3-7.6c2.9-2.9,7.6-3,7.6-3S283-78.9,280-76z"/>
		<line class="st4" x1="293.2" y1="-83.6" x2="298.5" y2="-78.3"/>
		<line class="st4" x1="277.5" y1="-99.3" x2="282.8" y2="-94.1"/>
		<line class="st4" x1="293.2" y1="-94.1" x2="298.5" y2="-99.3"/>
		<line class="st4" x1="277.5" y1="-78.3" x2="282.8" y2="-83.6"/>
	</g>
	<g>
		<path class="st4" d="M296.6-38.7c-4.8,0-8.8-4-8.8-4s3.9-4,8.8-4c4.8,0,8.8,4,8.8,4S301.4-38.7,296.6-38.7z"/>
		<path class="st4" d="M279.1-38.7c-4.8,0-8.8-4-8.8-4s3.9-4,8.8-4c4.8,0,8.8,4,8.8,4S283.9-38.7,279.1-38.7z"/>
		<path class="st4" d="M291.8-51.4c0,4.8-4,8.8-4,8.8s-4-3.9-4-8.8s4-8.8,4-8.8S291.8-56.3,291.8-51.4z"/>
		<path class="st4" d="M291.8-33.9c0,4.8-4,8.8-4,8.8s-4-3.9-4-8.8c0-4.8,4-8.8,4-8.8S291.8-38.7,291.8-33.9z"/>
		<path class="st4" d="M299.5-25c-3.2,0-5.9-2.6-5.9-5.9c0-3.2,2.6-5.9,5.9-5.9c3.2,0,5.9,2.6,5.9,5.9"/>
		<path class="st4" d="M305.2-54.3c0,3.2-2.6,5.9-5.9,5.9c-3.2,0-5.9-2.6-5.9-5.9c0-3.2,2.6-5.9,5.9-5.9"/>
		<path class="st4" d="M270.5-30.9c0-3.2,2.6-5.9,5.9-5.9c3.2,0,5.9,2.6,5.9,5.9c0,3.2-2.6,5.9-5.9,5.9"/>
		<path class="st4" d="M276.2-60.2c3.2,0,5.9,2.6,5.9,5.9c0,3.2-2.6,5.9-5.9,5.9c-3.2,0-5.9-2.6-5.9-5.9"/>
	</g>
	<g>
		<path class="st4" d="M474.1-38.6c-4.8,0-8.8-4-8.8-4s3.9-4,8.8-4s8.8,4,8.8,4S478.9-38.6,474.1-38.6z"/>
		<path class="st4" d="M456.6-38.6c-4.8,0-8.8-4-8.8-4s3.9-4,8.8-4c4.8,0,8.8,4,8.8,4S461.4-38.6,456.6-38.6z"/>
		<path class="st4" d="M469.3-51.3c0,4.8-4,8.8-4,8.8s-4-3.9-4-8.8c0-4.8,4-8.8,4-8.8S469.3-56.2,469.3-51.3z"/>
		<path class="st4" d="M469.3-33.8c0,4.8-4,8.8-4,8.8s-4-3.9-4-8.8s4-8.8,4-8.8S469.3-38.7,469.3-33.8z"/>
		<line class="st4" x1="465.3" y1="-42.6" x2="476" y2="-31.9"/>
		<line class="st4" x1="454.7" y1="-53.2" x2="465.3" y2="-42.6"/>
		<line class="st4" x1="465.3" y1="-42.6" x2="476" y2="-53.2"/>
		<line class="st4" x1="454.7" y1="-31.9" x2="465.3" y2="-42.6"/>
		<line class="st4" x1="482.8" y1="-42.6" x2="476" y2="-42.6"/>
		<line class="st4" x1="454.7" y1="-42.6" x2="447.8" y2="-42.6"/>
		<line class="st4" x1="465.3" y1="-60.1" x2="465.3" y2="-53.2"/>
		<line class="st4" x1="465.3" y1="-31.9" x2="465.3" y2="-25.1"/>
	</g>
	<g>
		<path class="st4" d="M360.5,7.7c-4.8,0-8.8-4-8.8-4s3.9-4,8.8-4c4.8,0,8.8,4,8.8,4S365.3,7.7,360.5,7.7z"/>
		<path class="st4" d="M343,7.7c-4.8,0-8.8-4-8.8-4s3.9-4,8.8-4c4.8,0,8.8,4,8.8,4S347.8,7.7,343,7.7z"/>
		<path class="st4" d="M355.7-5c0,4.8-4,8.8-4,8.8s-4-3.9-4-8.8c0-4.8,4-8.8,4-8.8S355.7-9.9,355.7-5z"/>
		<path class="st4" d="M355.7,12.5c0,4.8-4,8.8-4,8.8s-4-3.9-4-8.8c0-4.8,4-8.8,4-8.8S355.7,7.7,355.7,12.5z"/>
		<path class="st4" d="M358.7,9.2c3.4,3.4,5.5,6.9,5.5,6.9s-3.5-2-6.9-5.5c-3.4-3.4-5.5-6.9-5.5-6.9S355.2,5.8,358.7,9.2z"/>
		<path class="st4" d="M346.3-3.2c3.4,3.4,5.5,6.9,5.5,6.9s-3.5-2.1-6.9-5.5c-3.4-3.4-5.5-6.9-5.5-6.9S342.9-6.6,346.3-3.2z"/>
		<path class="st4" d="M357.2-3.2c3.4-3.4,6.9-5.5,6.9-5.5s-2.1,3.5-5.5,6.9c-3.4,3.4-6.9,5.5-6.9,5.5S353.8,0.2,357.2-3.2z"/>
		<path class="st4" d="M344.8,9.2c3.4-3.4,6.9-5.5,6.9-5.5s-2.1,3.5-5.5,6.9c-3.4,3.4-6.9,5.5-6.9,5.5S341.4,12.6,344.8,9.2z"/>
	</g>
	<g>
		<line class="st4" x1="451.1" y1="-106.2" x2="481.8" y2="-75.6"/>
		<g>
			<path class="st4" d="M465.5-104.7c1,1.4,0.7,7.8,0.7,7.8s-3.2-4-4.1-5.4c-1-1.4-0.7-2.8,0.3-3.4
				C463.3-106.4,464.6-106.2,465.5-104.7z"/>
			<path class="st4" d="M470.6-102.5c-0.9,1.5-4.5,5.6-4.5,5.6s0-6.3,0.9-7.8c0.9-1.5,2.2-1.8,3.2-1.2
				C471.3-105.3,471.6-104,470.6-102.5z"/>
		</g>
		<g>
			<path class="st4" d="M467.1-76.5c-1-1.4-0.7-7.8-0.7-7.8s3.2,4,4.2,5.4c1,1.4,0.7,2.8-0.3,3.4C469.4-74.8,468.1-75.1,467.1-76.5z
				"/>
			<path class="st4" d="M462-78.7c0.9-1.5,4.5-5.6,4.5-5.6s0,6.3-0.9,7.8c-0.9,1.5-2.2,1.8-3.2,1.2C461.4-76,461.1-77.3,462-78.7z"
				/>
		</g>
		<line class="st4" x1="451.1" y1="-75.6" x2="481.8" y2="-106.2"/>
		<g>
			<path class="st4" d="M452.6-90c1.4-1,7.8-0.6,7.8-0.6s-4,3.2-5.4,4.1c-1.4,1-2.8,0.7-3.4-0.3C450.9-87.7,451.2-89,452.6-90z"/>
			<path class="st4" d="M454.8-95.1c1.5,0.9,5.6,4.5,5.6,4.5s-6.3,0-7.8-0.9c-1.5-0.9-1.8-2.2-1.2-3.2
				C452.1-95.7,453.4-96,454.8-95.1z"/>
		</g>
		<g>
			<path class="st4" d="M480.3-91.5c-1.5,1-7.8,0.6-7.8,0.6s4-3.2,5.4-4.1c1.4-1,2.8-0.7,3.4,0.3C482-93.8,481.7-92.5,480.3-91.5z"
				/>
			<path class="st4" d="M478.1-86.4c-1.5-0.9-5.6-4.5-5.6-4.5s6.3,0,7.8,0.9c1.5,0.9,1.8,2.2,1.2,3.2
				C480.8-85.8,479.5-85.5,478.1-86.4z"/>
		</g>
	</g>
	<g>
		<g>
			<g>
				<path class="st9" d="M510.8,3.7c4.7,0,22.6,0,22.6,0"/>
				<g>
					<path class="st3" d="M510.9,4.8c-0.7,0-1.2-0.5-1.2-1.2c0-0.7,0.5-1.2,1.2-1.2c0.7,0,1.2,0.5,1.2,1.2
						C512.1,4.3,511.5,4.8,510.9,4.8z"/>
				</g>
			</g>
		</g>
		<g>
			<g>
				<path class="st9" d="M564,3.6c-4.7,0-22.6,0-22.6,0"/>
				<g>
					<path class="st3" d="M564,2.5c0.7,0,1.2,0.5,1.2,1.2c0,0.7-0.5,1.2-1.2,1.2c-0.7,0-1.2-0.5-1.2-1.2C562.8,3,563.3,2.5,564,2.5z
						"/>
				</g>
			</g>
		</g>
		<path class="st10" d="M540.9,3.7c0,1.9-1.5,3.4-3.4,3.4c-1.9,0-3.4-1.5-3.4-3.4c0-1.9,1.5-3.4,3.4-3.4
			C539.4,0.4,540.9,1.9,540.9,3.7z"/>
	</g>
	<g>
		<g>
			<g>
				<line class="st11" x1="198.7" y1="72" x2="426.8" y2="72"/>
				<g>
					<path class="st3" d="M198.7,73.4c-0.8,0-1.4-0.6-1.4-1.4c0-0.8,0.6-1.4,1.4-1.4c0.8,0,1.4,0.6,1.4,1.4
						C200.1,72.8,199.5,73.4,198.7,73.4z"/>
				</g>
				<g>
					<path class="st3" d="M426.8,73.4c0.8,0,1.4-0.6,1.4-1.4c0-0.8-0.6-1.4-1.4-1.4c-0.8,0-1.4,0.6-1.4,1.4
						C425.4,72.8,426,73.4,426.8,73.4z"/>
				</g>
			</g>
		</g>
		<g>
			<g>
				<g>
					<path class="st12" d="M301.3,63.5c0.7-2.3,3.2-3.6,3.2-3.6s1.3,2.5,0.5,4.8c-0.7,2.3-3.2,3.6-3.2,3.6S300.6,65.9,301.3,63.5z"
						/>
				</g>
				<g>
					<path class="st12" d="M299.6,53.1c3.6,2.1,4.8,6.7,4.8,6.7s-4.6,1.1-8.2-1c-3.6-2.1-4.8-6.7-4.8-6.7S296,51,299.6,53.1z"/>
					<line class="st12" x1="304.4" y1="59.9" x2="297.9" y2="56"/>
				</g>
			</g>
			<g>
				<g>
					<path class="st12" d="M324.2,63.5c-0.7-2.3-3.2-3.6-3.2-3.6s-1.3,2.5-0.5,4.8c0.7,2.3,3.2,3.6,3.2,3.6S324.9,65.9,324.2,63.5z"
						/>
				</g>
				<g>
					<path class="st12" d="M325.9,53.1c-3.6,2.1-4.8,6.7-4.8,6.7s4.6,1.1,8.2-1c3.6-2.1,4.8-6.7,4.8-6.7S329.5,51,325.9,53.1z"/>
					<line class="st12" x1="321.1" y1="59.9" x2="327.6" y2="56"/>
				</g>
			</g>
		</g>
		<g>
			<line class="st12" x1="223.5" y1="66.5" x2="301.1" y2="66.5"/>
			<line class="st12" x1="324.4" y1="66.5" x2="402" y2="66.5"/>
		</g>
		<g>
			<path class="st13" d="M320,44.1c-1.8-1.2-5.5-1.8-7.3,2.5c-1.8-4.3-5.5-3.7-7.3-2.5c-1.8,1.2-2.3,3.7-0.5,6.4
				c1.8,2.7,7.8,10.2,7.8,10.2s6-7.5,7.8-10.2C322.3,47.7,321.8,45.3,320,44.1z"/>
			<circle class="st12" cx="312.7" cy="65.3" r="2.5"/>
		</g>
	</g>
	<g>
		<path class="st4" d="M35.5,9.8c0,5.1-4.1,9.2-9.2,9.2s-9.2-4.1-9.2-9.2c0-5.1,4.1-9.2,9.2-9.2S35.5,4.7,35.5,9.8z"/>
		<g>
			<path class="st4" d="M22.9,9.8c0,0-5,6-11.2,6c-6.2,0-11.2-6-11.2-6s5-6,11.2-6C17.9,3.8,22.9,9.8,22.9,9.8z"/>
			<path class="st4" d="M22.9,9.8c1.6,1.8,3.5,4.1,3.4,9.2"/>
		</g>
		<g>
			<path class="st4" d="M29.8,9.8c0,0,5,6,11.2,6c6.2,0,11.2-6,11.2-6s-5-6-11.2-6C34.8,3.8,29.8,9.8,29.8,9.8z"/>
			<path class="st4" d="M29.8,9.8c-1.6,1.8-3.5,4.1-3.4,9.2"/>
		</g>
		<g>
			<path class="st4" d="M22.9,9.8c1.6-1.8,3.5-4.1,3.4-9.2"/>
		</g>
		<g>
			<path class="st4" d="M29.8,9.8c-1.6-1.8-3.5-4.1-3.4-9.2"/>
		</g>
	</g>
</g>
<g id="DESIGNED_BY_FREEPIK">
	<g id="XMLID_76_">
		<g>
			<g id="XMLID_486_">
				<path id="XMLID_507_" class="st14" d="M319.8,265.3c-0.2,0-0.4,0.1-0.5,0.2c-0.1,0.2-0.2,0.4-0.2,0.7v2.3
					c-0.3-0.3-0.6-0.5-0.9-0.7c-0.3-0.2-0.7-0.2-1.1-0.2c-0.8,0-1.4,0.3-1.8,0.8c-0.5,0.5-0.7,1.3-0.7,2.2c0,0.5,0.1,0.9,0.2,1.3
					c0.1,0.4,0.3,0.7,0.5,1c0.2,0.3,0.5,0.5,0.8,0.7c0.3,0.2,0.7,0.2,1,0.2c0.3,0,0.5,0,0.8-0.1c0.2-0.1,0.5-0.2,0.7-0.3
					c0.2-0.1,0.4-0.3,0.6-0.6v0.2c0,0.3,0.1,0.5,0.2,0.6c0.1,0.2,0.3,0.2,0.5,0.2c0.2,0,0.4-0.1,0.5-0.2c0.1-0.1,0.2-0.4,0.2-0.7
					v-6.8c0-0.3-0.1-0.5-0.2-0.7C320.2,265.4,320,265.3,319.8,265.3z M318.8,271.8c-0.1,0.3-0.3,0.5-0.5,0.6
					c-0.2,0.1-0.5,0.2-0.7,0.2c-0.3,0-0.5-0.1-0.7-0.2c-0.2-0.1-0.4-0.4-0.5-0.7c-0.1-0.3-0.2-0.6-0.2-1.1c0-0.4,0.1-0.7,0.2-1
					c0.1-0.3,0.3-0.5,0.5-0.7c0.2-0.2,0.5-0.2,0.8-0.2c0.3,0,0.5,0.1,0.7,0.2c0.2,0.2,0.4,0.4,0.5,0.7c0.1,0.3,0.2,0.6,0.2,1.1
					C319,271.1,318.9,271.5,318.8,271.8z"/>
				<path id="XMLID_504_" class="st14" d="M326.7,270.9c0.2-0.1,0.3-0.4,0.3-0.8c0-0.4-0.1-0.8-0.3-1.2c-0.2-0.4-0.5-0.7-1-1
					c-0.4-0.3-0.9-0.4-1.5-0.4c-0.5,0-0.9,0.1-1.3,0.2c-0.4,0.1-0.7,0.4-1,0.6c-0.3,0.3-0.5,0.6-0.6,1c-0.1,0.4-0.2,0.8-0.2,1.3
					c0,1,0.3,1.7,0.8,2.3c0.5,0.6,1.3,0.8,2.3,0.8c0.4,0,0.8-0.1,1.1-0.2c0.3-0.1,0.6-0.3,0.8-0.4c0.2-0.2,0.4-0.3,0.5-0.5
					c0.1-0.2,0.2-0.3,0.2-0.5c0-0.2,0-0.3-0.1-0.4c-0.1-0.1-0.2-0.1-0.4-0.1c-0.1,0-0.3,0-0.3,0.1c-0.2,0.2-0.3,0.3-0.5,0.4
					c-0.1,0.1-0.3,0.2-0.4,0.3c-0.1,0.1-0.3,0.2-0.4,0.2c-0.2,0-0.3,0.1-0.5,0.1c-0.3,0-0.5-0.1-0.7-0.2c-0.2-0.1-0.4-0.3-0.5-0.6
					c-0.1-0.3-0.2-0.6-0.2-0.9h3C326.2,271.1,326.5,271,326.7,270.9z M322.8,270.2c0.1-0.5,0.2-0.9,0.4-1.2c0.2-0.3,0.6-0.4,0.9-0.4
					c0.4,0,0.7,0.1,1,0.4c0.2,0.3,0.4,0.7,0.4,1.2H322.8z"/>
				<path id="XMLID_503_" class="st14" d="M331.9,270.5c-0.3-0.2-0.7-0.3-1.2-0.4c-0.4-0.1-0.7-0.2-0.9-0.2
					c-0.2-0.1-0.4-0.2-0.5-0.3c-0.1-0.1-0.2-0.2-0.2-0.4c0-0.2,0.1-0.3,0.3-0.4c0.2-0.1,0.4-0.2,0.7-0.2c0.3,0,0.5,0,0.6,0.1
					c0.2,0.1,0.3,0.2,0.4,0.4c0.1,0.2,0.3,0.3,0.4,0.4c0.1,0.1,0.2,0.1,0.4,0.1c0.2,0,0.4-0.1,0.5-0.2c0.1-0.1,0.2-0.3,0.2-0.4
					c0-0.2-0.1-0.3-0.2-0.5c-0.1-0.2-0.3-0.3-0.5-0.5c-0.2-0.1-0.5-0.2-0.8-0.3c-0.3-0.1-0.7-0.1-1.1-0.1c-0.5,0-0.9,0.1-1.3,0.2
					c-0.4,0.2-0.6,0.4-0.8,0.7c-0.2,0.3-0.3,0.6-0.3,0.9c0,0.3,0.1,0.6,0.3,0.9c0.2,0.2,0.5,0.4,0.8,0.6c0.3,0.1,0.8,0.3,1.3,0.4
					c0.5,0.1,0.8,0.2,1,0.4c0.2,0.1,0.3,0.3,0.3,0.6c0,0.2-0.1,0.3-0.3,0.5c-0.2,0.1-0.4,0.2-0.8,0.2c-0.4,0-0.7-0.1-0.9-0.2
					c-0.2-0.1-0.4-0.3-0.6-0.6c-0.1-0.1-0.2-0.3-0.2-0.3c-0.1-0.1-0.2-0.1-0.4-0.1c-0.2,0-0.3,0.1-0.5,0.2c-0.1,0.1-0.2,0.3-0.2,0.4
					c0,0.3,0.1,0.5,0.3,0.8c0.2,0.3,0.5,0.5,0.9,0.6c0.4,0.2,0.9,0.3,1.4,0.3c0.6,0,1.1-0.1,1.5-0.2c0.4-0.2,0.7-0.4,0.9-0.7
					c0.2-0.3,0.3-0.7,0.3-1.1c0-0.3-0.1-0.5-0.2-0.7C332.4,270.9,332.2,270.7,331.9,270.5z"/>
				<path id="XMLID_502_" class="st14" d="M334.3,267.6c-0.2,0-0.4,0.1-0.5,0.2c-0.1,0.2-0.2,0.4-0.2,0.7v4.4c0,0.3,0.1,0.5,0.2,0.7
					c0.1,0.2,0.3,0.2,0.5,0.2c0.2,0,0.4-0.1,0.6-0.2c0.1-0.2,0.2-0.4,0.2-0.7v-4.4c0-0.3-0.1-0.5-0.2-0.6
					C334.7,267.7,334.6,267.6,334.3,267.6z"/>
				<path id="XMLID_501_" class="st14" d="M334.3,265.4c-0.2,0-0.4,0.1-0.5,0.2c-0.2,0.1-0.2,0.3-0.2,0.5c0,0.2,0.1,0.4,0.2,0.6
					c0.2,0.1,0.3,0.2,0.5,0.2c0.2,0,0.4-0.1,0.5-0.2c0.1-0.1,0.2-0.3,0.2-0.6c0-0.2-0.1-0.4-0.2-0.6
					C334.7,265.4,334.5,265.4,334.3,265.4z"/>
				<path id="XMLID_498_" class="st14" d="M341.1,267.6c-0.2,0-0.4,0.1-0.5,0.2c-0.1,0.1-0.2,0.4-0.2,0.6v0.2
					c-0.3-0.4-0.6-0.6-0.9-0.8c-0.3-0.2-0.7-0.2-1.1-0.2c-0.4,0-0.7,0.1-1,0.2c-0.3,0.1-0.6,0.3-0.8,0.6c-0.2,0.3-0.4,0.6-0.5,0.9
					c-0.1,0.4-0.2,0.8-0.2,1.2c0,0.6,0.1,1.2,0.3,1.6c0.2,0.5,0.5,0.8,0.9,1.1c0.4,0.3,0.8,0.4,1.3,0.4c0.4,0,0.8-0.1,1.1-0.3
					c0.3-0.2,0.6-0.4,0.8-0.8c0,0.5,0,0.9,0,1.1c0,0.2-0.1,0.4-0.2,0.6c-0.1,0.2-0.2,0.4-0.5,0.5c-0.2,0.1-0.5,0.2-0.9,0.2
					c-0.2,0-0.4,0-0.5-0.1c-0.2,0-0.3-0.1-0.4-0.2c-0.1-0.1-0.2-0.2-0.3-0.3c-0.1-0.1-0.2-0.2-0.3-0.3c-0.2-0.2-0.4-0.3-0.6-0.3
					c-0.2,0-0.3,0.1-0.5,0.2c-0.1,0.1-0.2,0.3-0.2,0.5c0,0.2,0.1,0.5,0.3,0.7c0.2,0.2,0.5,0.4,1,0.6c0.4,0.1,0.9,0.2,1.4,0.2
					c0.6,0,1.1-0.1,1.4-0.2c0.4-0.1,0.7-0.3,0.9-0.5c0.2-0.2,0.4-0.5,0.5-0.9c0.1-0.4,0.2-0.8,0.2-1.3v-4.5c0-0.4,0-0.6-0.1-0.8
					C341.6,267.7,341.4,267.6,341.1,267.6z M340.1,271.7c-0.1,0.3-0.3,0.5-0.6,0.6c-0.2,0.1-0.5,0.2-0.7,0.2c-0.4,0-0.8-0.2-1.1-0.5
					c-0.3-0.3-0.4-0.8-0.4-1.4c0-0.6,0.1-1.1,0.4-1.4c0.3-0.3,0.6-0.5,1.1-0.5c0.4,0,0.8,0.2,1.1,0.5c0.3,0.3,0.4,0.8,0.4,1.5
					C340.3,271.1,340.2,271.4,340.1,271.7z"/>
				<path id="XMLID_497_" class="st14" d="M348,268.6c-0.2-0.3-0.4-0.6-0.7-0.7c-0.3-0.2-0.7-0.3-1.1-0.3c-0.4,0-0.8,0.1-1.1,0.2
					c-0.3,0.2-0.6,0.4-0.9,0.8v-0.2c0-0.2,0-0.3-0.1-0.5c-0.1-0.1-0.2-0.2-0.3-0.3c-0.1-0.1-0.2-0.1-0.4-0.1c-0.2,0-0.4,0.1-0.5,0.2
					c-0.1,0.1-0.2,0.4-0.2,0.7v4.4c0,0.3,0.1,0.5,0.2,0.7c0.1,0.2,0.3,0.2,0.5,0.2c0.2,0,0.4-0.1,0.6-0.2c0.1-0.2,0.2-0.4,0.2-0.7
					V271c0-0.6,0-1.1,0.1-1.3c0.1-0.3,0.3-0.5,0.5-0.7c0.2-0.2,0.5-0.2,0.7-0.2c0.4,0,0.7,0.1,0.8,0.4c0.1,0.3,0.2,0.7,0.2,1.2v2.6
					c0,0.3,0.1,0.5,0.2,0.7c0.1,0.2,0.3,0.2,0.6,0.2c0.2,0,0.4-0.1,0.5-0.2c0.1-0.2,0.2-0.4,0.2-0.7V270c0-0.3,0-0.6,0-0.8
					S348.1,268.8,348,268.6z"/>
				<path id="XMLID_494_" class="st14" d="M354.5,270.9c0.2-0.1,0.3-0.4,0.3-0.8c0-0.4-0.1-0.8-0.3-1.2c-0.2-0.4-0.5-0.7-1-1
					c-0.4-0.3-0.9-0.4-1.5-0.4c-0.5,0-0.9,0.1-1.3,0.2c-0.4,0.1-0.7,0.4-1,0.6c-0.3,0.3-0.5,0.6-0.6,1c-0.1,0.4-0.2,0.8-0.2,1.3
					c0,1,0.3,1.7,0.8,2.3c0.5,0.6,1.3,0.8,2.3,0.8c0.4,0,0.8-0.1,1.1-0.2c0.3-0.1,0.6-0.3,0.8-0.4c0.2-0.2,0.4-0.3,0.5-0.5
					c0.1-0.2,0.2-0.3,0.2-0.5c0-0.2,0-0.3-0.1-0.4c-0.1-0.1-0.2-0.1-0.4-0.1c-0.1,0-0.3,0-0.3,0.1c-0.2,0.2-0.3,0.3-0.5,0.4
					c-0.1,0.1-0.3,0.2-0.4,0.3c-0.1,0.1-0.3,0.2-0.4,0.2c-0.2,0-0.3,0.1-0.5,0.1c-0.3,0-0.5-0.1-0.7-0.2c-0.2-0.1-0.4-0.3-0.5-0.6
					c-0.1-0.3-0.2-0.6-0.2-0.9h3C354,271.1,354.3,271,354.5,270.9z M350.6,270.2c0.1-0.5,0.2-0.9,0.4-1.2c0.2-0.3,0.6-0.4,0.9-0.4
					c0.4,0,0.7,0.1,1,0.4c0.2,0.3,0.4,0.7,0.4,1.2H350.6z"/>
				<path id="XMLID_491_" class="st14" d="M360.5,265.3c-0.2,0-0.4,0.1-0.5,0.2c-0.1,0.2-0.2,0.4-0.2,0.7v2.3
					c-0.3-0.3-0.6-0.5-0.9-0.7c-0.3-0.2-0.7-0.2-1.1-0.2c-0.8,0-1.4,0.3-1.8,0.8c-0.5,0.5-0.7,1.3-0.7,2.2c0,0.5,0.1,0.9,0.2,1.3
					c0.1,0.4,0.3,0.7,0.5,1c0.2,0.3,0.5,0.5,0.8,0.7c0.3,0.2,0.7,0.2,1,0.2c0.3,0,0.5,0,0.8-0.1c0.2-0.1,0.5-0.2,0.7-0.3
					c0.2-0.1,0.4-0.3,0.6-0.6v0.2c0,0.3,0.1,0.5,0.2,0.6c0.1,0.2,0.3,0.2,0.5,0.2c0.2,0,0.4-0.1,0.5-0.2c0.1-0.1,0.2-0.4,0.2-0.7
					v-6.8c0-0.3-0.1-0.5-0.2-0.7C361,265.4,360.8,265.3,360.5,265.3z M359.5,271.8c-0.1,0.3-0.3,0.5-0.5,0.6
					c-0.2,0.1-0.5,0.2-0.7,0.2c-0.3,0-0.5-0.1-0.7-0.2c-0.2-0.1-0.4-0.4-0.5-0.7c-0.1-0.3-0.2-0.6-0.2-1.1c0-0.4,0.1-0.7,0.2-1
					c0.1-0.3,0.3-0.5,0.5-0.7c0.2-0.2,0.5-0.2,0.8-0.2c0.3,0,0.5,0.1,0.7,0.2c0.2,0.2,0.4,0.4,0.5,0.7c0.1,0.3,0.2,0.6,0.2,1.1
					C359.7,271.1,359.7,271.5,359.5,271.8z"/>
				<path id="XMLID_488_" class="st14" d="M369.4,268c-0.4-0.2-0.8-0.4-1.3-0.4c-0.4,0-0.8,0.1-1.1,0.2c-0.3,0.2-0.6,0.4-0.9,0.7
					v-2.3c0-0.3-0.1-0.5-0.2-0.6c-0.1-0.2-0.3-0.2-0.5-0.2c-0.2,0-0.4,0.1-0.5,0.2c-0.1,0.2-0.2,0.4-0.2,0.7v6.7
					c0,0.3,0.1,0.5,0.2,0.7c0.1,0.1,0.3,0.2,0.5,0.2c0.2,0,0.4-0.1,0.5-0.2c0.1-0.1,0.2-0.4,0.2-0.7v-0.2c0.2,0.2,0.3,0.3,0.4,0.4
					c0.1,0.1,0.2,0.2,0.4,0.3c0.1,0.1,0.3,0.2,0.5,0.2c0.2,0.1,0.4,0.1,0.7,0.1c0.4,0,0.7-0.1,1.1-0.2c0.3-0.2,0.6-0.4,0.8-0.7
					c0.2-0.3,0.4-0.6,0.5-1c0.1-0.4,0.2-0.8,0.2-1.3c0-0.6-0.1-1.2-0.3-1.6C370.1,268.6,369.8,268.2,369.4,268z M368.7,272.1
					c-0.3,0.3-0.6,0.5-1,0.5c-0.5,0-0.8-0.2-1.1-0.5c-0.3-0.3-0.4-0.8-0.4-1.4c0-0.4,0.1-0.8,0.2-1.1c0.1-0.3,0.3-0.5,0.5-0.7
					c0.2-0.2,0.5-0.2,0.8-0.2c0.3,0,0.5,0.1,0.7,0.2c0.2,0.2,0.4,0.4,0.5,0.7c0.1,0.3,0.2,0.6,0.2,1
					C369.1,271.3,368.9,271.8,368.7,272.1z"/>
				<path id="XMLID_487_" class="st14" d="M376,267.7c-0.1-0.1-0.2-0.1-0.3-0.1c-0.2,0-0.3,0-0.4,0.1c-0.1,0.1-0.2,0.2-0.2,0.3
					c-0.1,0.2-0.2,0.4-0.3,0.7l-1.2,3.5l-1.3-3.8c-0.1-0.3-0.2-0.5-0.3-0.6c-0.1-0.1-0.3-0.2-0.5-0.2c-0.1,0-0.2,0-0.4,0.1
					c-0.1,0.1-0.2,0.2-0.3,0.3c-0.1,0.1-0.1,0.2-0.1,0.4c0,0.1,0.1,0.3,0.2,0.6l1.9,4.7l-0.1,0.3c-0.1,0.3-0.2,0.4-0.3,0.6
					c-0.1,0.1-0.2,0.2-0.3,0.3c-0.1,0.1-0.2,0.1-0.4,0.1c-0.1,0-0.2,0-0.3,0c-0.1,0-0.2,0-0.2,0c-0.2,0-0.4,0-0.5,0.1
					c-0.1,0.1-0.2,0.2-0.2,0.4c0,0.3,0.1,0.4,0.3,0.5c0.2,0.1,0.6,0.1,1,0.1c0.5,0,0.8-0.1,1.1-0.2c0.3-0.1,0.5-0.3,0.7-0.6
					c0.2-0.3,0.3-0.6,0.5-1.1l2-5.2c0-0.1,0.1-0.3,0.1-0.4c0-0.1,0.1-0.2,0.1-0.3c0-0.1,0-0.2-0.1-0.3
					C376.2,267.8,376.1,267.8,376,267.7z"/>
			</g>
			<g id="XMLID_450_">
				<g id="XMLID_465_">
					<path id="XMLID_485_" class="st14" d="M397.2,265.3c-0.5,0-0.9,0.1-1.2,0.2c-0.3,0.1-0.5,0.3-0.6,0.6c-0.1,0.3-0.2,0.7-0.2,1.1
						v0.5h-0.4c-0.5,0-0.8,0.2-0.8,0.6c0,0.2,0.1,0.3,0.2,0.4c0.1,0.1,0.3,0.2,0.5,0.2h0.4v4.1c0,0.3,0.1,0.5,0.2,0.7
						c0.1,0.2,0.3,0.2,0.5,0.2c0.2,0,0.4-0.1,0.6-0.2c0.1-0.2,0.2-0.4,0.2-0.7v-4.1h0.4c0.3,0,0.5,0,0.6-0.1
						c0.2-0.1,0.2-0.2,0.2-0.5c0-0.4-0.3-0.5-0.9-0.5h-0.4v-0.4c0-0.3,0-0.5,0.1-0.7c0.1-0.2,0.3-0.2,0.5-0.2c0.1,0,0.2,0,0.4,0
						c0.1,0,0.3,0,0.3,0c0.1,0,0.2-0.1,0.3-0.2c0.1-0.1,0.1-0.2,0.1-0.4C398.5,265.5,398.1,265.3,397.2,265.3z"/>
					<path id="XMLID_484_" class="st14" d="M402,267.8c-0.3-0.2-0.6-0.2-0.9-0.2c-0.3,0-0.6,0.1-0.8,0.2c-0.2,0.2-0.4,0.4-0.6,0.7
						c0-0.3-0.1-0.6-0.2-0.7c-0.1-0.2-0.3-0.2-0.6-0.2c-0.5,0-0.7,0.3-0.7,1v4.3c0,0.3,0.1,0.5,0.2,0.7c0.1,0.2,0.3,0.2,0.5,0.2
						c0.2,0,0.4-0.1,0.6-0.2c0.1-0.2,0.2-0.4,0.2-0.7v-1.3c0-0.5,0-0.9,0-1.2c0-0.3,0.1-0.6,0.2-0.8c0.1-0.2,0.2-0.4,0.3-0.5
						c0.1-0.1,0.3-0.2,0.6-0.2c0.2,0,0.4,0,0.6,0.1c0.2,0.1,0.4,0.1,0.4,0.1c0.1,0,0.3-0.1,0.4-0.2c0.1-0.1,0.2-0.3,0.2-0.5
						C402.5,268.2,402.4,268,402,267.8z"/>
					<path id="XMLID_481_" class="st14" d="M407.8,270.9c0.2-0.1,0.3-0.4,0.3-0.7c0-0.4-0.1-0.8-0.3-1.2c-0.2-0.4-0.5-0.7-1-1
						c-0.4-0.3-0.9-0.4-1.5-0.4c-0.5,0-0.9,0.1-1.3,0.2c-0.4,0.1-0.7,0.4-1,0.6c-0.3,0.3-0.5,0.6-0.6,1c-0.1,0.4-0.2,0.8-0.2,1.3
						c0,1,0.3,1.7,0.8,2.3c0.5,0.6,1.3,0.8,2.3,0.8c0.4,0,0.8-0.1,1.1-0.2c0.3-0.1,0.6-0.3,0.8-0.4c0.2-0.2,0.4-0.3,0.5-0.5
						c0.1-0.2,0.2-0.3,0.2-0.5c0-0.2,0-0.3-0.1-0.4c-0.1-0.1-0.2-0.1-0.4-0.1c-0.1,0-0.3,0-0.3,0.1c-0.2,0.2-0.3,0.3-0.5,0.4
						c-0.1,0.1-0.2,0.2-0.4,0.3c-0.1,0.1-0.3,0.2-0.4,0.2c-0.2,0-0.3,0.1-0.5,0.1c-0.3,0-0.5-0.1-0.8-0.2c-0.2-0.1-0.4-0.3-0.5-0.6
						c-0.1-0.3-0.2-0.6-0.2-0.9h3C407.3,271.1,407.6,271,407.8,270.9z M403.9,270.2c0.1-0.5,0.2-0.9,0.4-1.2
						c0.2-0.3,0.6-0.4,0.9-0.4c0.4,0,0.7,0.1,1,0.4c0.2,0.3,0.4,0.7,0.4,1.2H403.9z"/>
					<path id="XMLID_478_" class="st14" d="M414.2,270.9c0.2-0.1,0.3-0.4,0.3-0.7c0-0.4-0.1-0.8-0.3-1.2c-0.2-0.4-0.5-0.7-1-1
						c-0.4-0.3-0.9-0.4-1.5-0.4c-0.5,0-0.9,0.1-1.3,0.2c-0.4,0.1-0.7,0.4-1,0.6c-0.3,0.3-0.5,0.6-0.6,1c-0.1,0.4-0.2,0.8-0.2,1.3
						c0,1,0.3,1.7,0.8,2.3c0.5,0.6,1.3,0.8,2.3,0.8c0.4,0,0.8-0.1,1.1-0.2c0.3-0.1,0.6-0.3,0.8-0.4c0.2-0.2,0.4-0.3,0.5-0.5
						c0.1-0.2,0.2-0.3,0.2-0.5c0-0.2,0-0.3-0.1-0.4c-0.1-0.1-0.2-0.1-0.4-0.1c-0.1,0-0.3,0-0.3,0.1c-0.2,0.2-0.3,0.3-0.5,0.4
						c-0.1,0.1-0.2,0.2-0.4,0.3c-0.1,0.1-0.3,0.2-0.4,0.2c-0.1,0-0.3,0.1-0.5,0.1c-0.3,0-0.5-0.1-0.8-0.2c-0.2-0.1-0.4-0.3-0.5-0.6
						c-0.1-0.3-0.2-0.6-0.2-0.9h3C413.6,271.1,414,271,414.2,270.9z M410.3,270.2c0-0.5,0.2-0.9,0.4-1.2c0.2-0.3,0.6-0.4,0.9-0.4
						c0.4,0,0.7,0.1,1,0.4c0.2,0.3,0.4,0.7,0.4,1.2H410.3z"/>
					<path id="XMLID_475_" class="st14" d="M419.9,268c-0.4-0.2-0.8-0.4-1.3-0.4c-0.4,0-0.7,0.1-1.1,0.3c-0.3,0.2-0.6,0.4-0.9,0.8
						v-0.2c0-0.3-0.1-0.5-0.2-0.6c-0.1-0.1-0.3-0.2-0.5-0.2c-0.2,0-0.4,0.1-0.5,0.2c-0.1,0.1-0.2,0.4-0.2,0.7v6.6
						c0,0.3,0,0.6,0.1,0.8c0.1,0.2,0.3,0.3,0.6,0.3c0.5,0,0.7-0.3,0.7-1v-2.3c0.3,0.3,0.6,0.6,0.9,0.8c0.3,0.2,0.7,0.3,1.1,0.3
						c0.4,0,0.7-0.1,1-0.2c0.3-0.1,0.6-0.4,0.8-0.6c0.2-0.3,0.4-0.6,0.5-1c0.1-0.4,0.2-0.8,0.2-1.3c0-0.6-0.1-1.2-0.3-1.7
						C420.6,268.6,420.3,268.2,419.9,268z M419.4,271.8c-0.1,0.3-0.3,0.5-0.5,0.7c-0.2,0.1-0.5,0.2-0.7,0.2c-0.4,0-0.8-0.2-1.1-0.5
						c-0.3-0.3-0.4-0.8-0.4-1.4c0-0.6,0.1-1.1,0.4-1.5c0.3-0.3,0.6-0.5,1.1-0.5c0.3,0,0.5,0.1,0.7,0.2c0.2,0.2,0.4,0.4,0.5,0.7
						c0.1,0.3,0.2,0.6,0.2,1C419.6,271.1,419.5,271.5,419.4,271.8z"/>
					<path id="XMLID_474_" class="st14" d="M422.7,267.6c-0.2,0-0.4,0.1-0.5,0.2c-0.1,0.2-0.2,0.4-0.2,0.7v4.4
						c0,0.3,0.1,0.5,0.2,0.7c0.1,0.2,0.3,0.2,0.5,0.2c0.2,0,0.4-0.1,0.6-0.2c0.1-0.2,0.2-0.4,0.2-0.7v-4.4c0-0.3-0.1-0.5-0.2-0.6
						C423.1,267.7,422.9,267.6,422.7,267.6z"/>
					<path id="XMLID_473_" class="st14" d="M422.7,265.4c-0.2,0-0.4,0.1-0.5,0.2c-0.2,0.1-0.2,0.3-0.2,0.5c0,0.2,0.1,0.4,0.2,0.6
						c0.2,0.1,0.3,0.2,0.5,0.2c0.2,0,0.4-0.1,0.5-0.2c0.1-0.1,0.2-0.3,0.2-0.6c0-0.2-0.1-0.4-0.2-0.6
						C423.1,265.4,422.9,265.4,422.7,265.4z"/>
					<path id="XMLID_472_" class="st14" d="M429.6,272.4l-1.6-2.5l0.8-0.7c0.4-0.4,0.6-0.7,0.6-0.9c0-0.2-0.1-0.3-0.2-0.5
						c-0.1-0.1-0.3-0.2-0.5-0.2c-0.2,0-0.3,0-0.4,0.1c-0.1,0.1-0.3,0.2-0.5,0.5l-1.7,1.8v-3.7c0-0.3-0.1-0.6-0.2-0.7
						c-0.1-0.2-0.3-0.2-0.6-0.2c-0.2,0-0.4,0.1-0.6,0.3c-0.1,0.2-0.2,0.4-0.2,0.8v6.5c0,0.3,0.1,0.5,0.2,0.7
						c0.1,0.2,0.3,0.2,0.6,0.2c0.2,0,0.4-0.1,0.5-0.2c0.2-0.2,0.2-0.4,0.2-0.7v-1.2l0.8-0.8l1.4,2.2c0.2,0.3,0.3,0.4,0.4,0.5
						c0.1,0.1,0.2,0.2,0.4,0.2c0.2,0,0.4-0.1,0.5-0.2c0.1-0.1,0.2-0.3,0.2-0.6c0-0.1,0-0.2-0.1-0.3
						C429.8,272.7,429.8,272.5,429.6,272.4z"/>
					<path id="XMLID_471_" class="st14" d="M431.7,272.1c-0.2,0-0.4,0.1-0.6,0.2c-0.2,0.2-0.2,0.4-0.2,0.6c0,0.3,0.1,0.5,0.3,0.6
						c0.2,0.2,0.4,0.2,0.6,0.2c0.2,0,0.4-0.1,0.6-0.2c0.2-0.1,0.2-0.4,0.2-0.6c0-0.2-0.1-0.4-0.2-0.6
						C432.1,272.2,431.9,272.1,431.7,272.1z"/>
					<path id="XMLID_470_" class="st14" d="M438.7,271.3c-0.2,0-0.3,0.1-0.4,0.1c-0.1,0.1-0.2,0.2-0.3,0.4c-0.2,0.3-0.4,0.5-0.6,0.7
						c-0.2,0.1-0.5,0.2-0.8,0.2c-0.2,0-0.4,0-0.6-0.1c-0.2-0.1-0.4-0.2-0.5-0.4c-0.1-0.2-0.2-0.4-0.3-0.6c-0.1-0.2-0.1-0.5-0.1-0.8
						c0-0.6,0.1-1.1,0.4-1.5c0.3-0.4,0.6-0.5,1.1-0.5c0.3,0,0.6,0.1,0.8,0.2c0.2,0.1,0.4,0.4,0.6,0.6c0.1,0.1,0.2,0.3,0.3,0.3
						c0.1,0.1,0.2,0.1,0.3,0.1c0.2,0,0.4-0.1,0.5-0.2c0.1-0.1,0.2-0.3,0.2-0.5c0-0.2-0.1-0.4-0.2-0.6c-0.1-0.2-0.3-0.4-0.5-0.6
						c-0.2-0.2-0.5-0.3-0.8-0.4c-0.3-0.1-0.7-0.2-1.1-0.2c-0.6,0-1.2,0.1-1.7,0.4c-0.5,0.3-0.8,0.6-1.1,1.1c-0.2,0.5-0.4,1-0.4,1.7
						c0,0.9,0.3,1.7,0.8,2.2c0.5,0.6,1.3,0.8,2.2,0.8c0.4,0,0.8-0.1,1.2-0.2c0.4-0.1,0.7-0.3,0.9-0.5c0.2-0.2,0.4-0.4,0.5-0.6
						c0.1-0.2,0.2-0.4,0.2-0.6c0-0.2-0.1-0.3-0.2-0.5C439,271.3,438.9,271.3,438.7,271.3z"/>
					<path id="XMLID_467_" class="st14" d="M445.1,268.5c-0.3-0.3-0.6-0.5-1-0.6c-0.4-0.2-0.8-0.2-1.3-0.2c-0.5,0-0.9,0.1-1.3,0.2
						c-0.4,0.1-0.7,0.4-1,0.6c-0.3,0.3-0.5,0.6-0.6,1c-0.1,0.4-0.2,0.8-0.2,1.3c0,0.5,0.1,0.9,0.2,1.3c0.1,0.4,0.3,0.7,0.6,1
						c0.3,0.3,0.6,0.5,1,0.6c0.4,0.2,0.8,0.2,1.3,0.2c0.5,0,0.9-0.1,1.3-0.2c0.4-0.1,0.7-0.4,1-0.6c0.3-0.3,0.5-0.6,0.6-1
						c0.1-0.4,0.2-0.8,0.2-1.3c0-0.5-0.1-0.9-0.2-1.3C445.6,269.1,445.4,268.7,445.1,268.5z M444,272.2c-0.3,0.4-0.6,0.5-1.1,0.5
						c-0.3,0-0.6-0.1-0.8-0.2c-0.2-0.2-0.4-0.4-0.5-0.7c-0.1-0.3-0.2-0.6-0.2-1c0-0.4,0.1-0.8,0.2-1.1c0.1-0.3,0.3-0.5,0.5-0.7
						c0.2-0.2,0.5-0.2,0.8-0.2c0.5,0,0.8,0.2,1.1,0.5c0.3,0.3,0.4,0.8,0.4,1.5C444.4,271.3,444.3,271.8,444,272.2z"/>
					<path id="XMLID_466_" class="st14" d="M454.5,267.9c-0.3-0.2-0.7-0.2-1.1-0.2c-0.4,0-0.7,0.1-1,0.2c-0.3,0.2-0.6,0.4-0.8,0.7
						c-0.2-0.3-0.4-0.5-0.7-0.7c-0.3-0.2-0.6-0.2-1-0.2c-0.4,0-0.7,0.1-1,0.2c-0.3,0.1-0.6,0.4-0.9,0.7v-0.1c0-0.2-0.1-0.4-0.2-0.6
						c-0.1-0.1-0.3-0.2-0.5-0.2c-0.2,0-0.4,0.1-0.5,0.2c-0.1,0.1-0.2,0.4-0.2,0.7v4.4c0,0.3,0.1,0.6,0.2,0.7
						c0.1,0.2,0.3,0.2,0.6,0.2c0.2,0,0.4-0.1,0.6-0.2c0.1-0.2,0.2-0.4,0.2-0.7v-2.1c0-0.6,0.1-1.1,0.2-1.5c0.2-0.3,0.5-0.5,1-0.5
						c0.2,0,0.4,0.1,0.6,0.2c0.1,0.1,0.2,0.3,0.2,0.5c0,0.2,0,0.5,0,0.9v2.4c0,0.3,0.1,0.6,0.2,0.7c0.1,0.2,0.3,0.2,0.6,0.2
						c0.2,0,0.4-0.1,0.6-0.2c0.1-0.2,0.2-0.4,0.2-0.7v-2c0-0.7,0.1-1.1,0.2-1.4c0.1-0.2,0.2-0.4,0.4-0.5c0.2-0.1,0.4-0.2,0.6-0.2
						c0.2,0,0.4,0.1,0.6,0.2c0.1,0.1,0.2,0.3,0.2,0.5c0,0.2,0,0.5,0,0.8v2.6c0,0.3,0.1,0.6,0.2,0.7c0.1,0.2,0.3,0.2,0.6,0.2
						c0.2,0,0.4-0.1,0.6-0.2c0.1-0.2,0.2-0.4,0.2-0.7v-3c0-0.6-0.1-1-0.2-1.3C455,268.3,454.8,268,454.5,267.9z"/>
				</g>
				<g id="XMLID_451_">
					<path id="XMLID_464_" class="st14" d="M380.5,270.3C380.5,270.3,380.5,270.3,380.5,270.3C380.5,270.3,380.5,270.3,380.5,270.3z
						"/>
					<path id="XMLID_463_" class="st14" d="M380.5,270.8C380.5,270.8,380.5,270.8,380.5,270.8c0-0.1-0.1-0.3-0.1-0.4
						C380.5,270.6,380.5,270.7,380.5,270.8z"/>
					<path id="XMLID_462_" class="st14" d="M381.1,272.3C381,272.2,381,272.2,381.1,272.3C381,272.2,381,272.2,381.1,272.3z"/>
					<path id="XMLID_461_" class="st14" d="M381,272.2C381,272.1,381,272.1,381,272.2C381,272.1,381,272.1,381,272.2z"/>
					<path id="XMLID_460_" class="st14" d="M380.7,271.4c0.1,0.2,0.2,0.5,0.3,0.7C380.9,271.8,380.8,271.6,380.7,271.4L380.7,271.4z
						"/>
					<path id="XMLID_459_" class="st14" d="M385.6,263.9l-0.1-0.2c0.3-0.1,0.5-0.3,0.5-0.6c0-0.3-0.3-0.6-0.6-0.6
						c-0.3,0-0.6,0.3-0.6,0.6c0,0.3,0.2,0.6,0.5,0.6l0.1,0.3c-1,0.1-1.7,0.5-1.7,0.5l0.1,0.4c0.6-0.2,1.1-0.3,1.6-0.4
						c0.5,0,0.8-0.1,1.1-0.1c0.3,0,0.5,0,0.8,0.1l0.1-0.5C387.2,264.1,386.5,263.9,385.6,263.9z"/>
					<path id="XMLID_458_" class="st14" d="M380.6,266.3c0,0-0.5,0.4-0.8,1.2c0,0,0,0-0.1-0.1c-0.1-0.1-0.3-0.2-0.4-0.2c0,0,0,0,0,0
						c-0.1,0-0.2,0-0.3-0.1c0.1-0.1,0.1-0.2,0.1-0.2c0-0.2-0.2-0.4-0.4-0.4c-0.2,0-0.4,0.2-0.4,0.4c0,0.2,0.2,0.4,0.4,0.4
						c0,0,0.1,0,0.1,0c0.1,0.1,0.3,0.2,0.5,0.2c0.1,0,0.2,0,0.3,0.1c0.1,0.1,0.1,0.2,0.1,0.3c0,0,0,0,0,0c-0.3,0.7-0.2,1.6-0.2,1.6
						l0.6,0c0-0.3,0.1-0.9,0.2-1.3c0.3-0.9,0.7-1.4,0.7-1.4l0,0c0,0,0-0.1,0.1-0.1l-0.2-0.1L380.6,266.3z"/>
					<path id="XMLID_457_" class="st14" d="M391.8,265c-0.2,0-0.4,0.2-0.4,0.4c0,0,0,0.1,0,0.1c-0.1,0.1-0.2,0.3-0.2,0.5
						c0,0.1,0,0.2-0.1,0.3c-0.1,0-0.1,0.1-0.2,0.1c-0.5-0.7-1-1-1-1l-0.4,0.5c0.3,0.3,0.7,0.7,1,1.2c0.2,0.3,0.5,0.8,0.7,1.2
						l0.6-0.3c0,0-0.3-0.7-0.7-1.3c0.1,0,0.1-0.1,0.2-0.1c0.1-0.1,0.2-0.3,0.2-0.4c0-0.1,0-0.2,0.1-0.3c0.1,0.1,0.2,0.1,0.2,0.1
						c0.2,0,0.4-0.2,0.4-0.4C392.2,265.2,392.1,265,391.8,265z"/>
					<path id="XMLID_456_" class="st14" d="M390.3,270.4c-0.8,0.4-2.2,0.9-4,1.2c-0.7,0.1-1.4,0.1-2,0.1c-0.8,0-1.5-0.1-2.1-0.1
						c-0.6-0.1-1.1-0.2-1.4-0.2c0.1,0.2,0.2,0.5,0.3,0.7c0,0,0,0,0,0c0,0,0,0.1,0,0.1c0,0,0,0.1,0,0.1c0,0,0,0,0,0
						c0.2,0.3,0.4,0.6,0.6,0.9c0.9,0.9,1.7,1.1,1.7,1.1l0,0l0,0c0,0,0.8,0.2,1.9,0.2c1.1,0,2.3-0.2,3.4-0.7c0.8-0.4,1.5-1,1.9-1.6
						c0.3-0.4,0.5-0.9,0.6-1.4c0.1-0.3,0.1-0.7,0.1-1.1C391.1,270,390.8,270.2,390.3,270.4z"/>
					<path id="XMLID_452_" class="st14" d="M387.1,264.9c-0.2,0-0.5-0.1-0.7-0.1c-0.3,0-0.6,0-1,0.1c-0.4,0-0.9,0.2-1.5,0.4
						c-0.8,0.3-1.5,0.7-2.1,1.2l0,0c-0.1,0.1-0.3,0.2-0.5,0.5c0,0-0.4,0.5-0.7,1.3c-0.2,0.6-0.2,1.4-0.2,1.5v0c0,0.2,0,0.4,0,0.6
						c0,0,0,0,0,0c0,0,0,0,0,0.1c0,0.1,0,0.3,0.1,0.4c0.4,0.1,2.9,0.7,5.6,0.3c1.7-0.2,3-0.8,3.8-1.1c0.7-0.3,1.1-0.6,1.3-0.7
						c-0.2-0.6-0.6-1.6-1-2.2C389.1,265.4,387.8,265,387.1,264.9z M383.7,269.8c-0.9,0-1.7-0.7-1.7-1.7c0-0.9,0.7-1.7,1.7-1.7
						c0.9,0,1.7,0.7,1.7,1.7C385.4,269.1,384.6,269.8,383.7,269.8z M388.6,268.6c-0.6,0-1-0.5-1-1c0-0.6,0.5-1,1-1c0.6,0,1,0.5,1,1
						C389.6,268.2,389.1,268.6,388.6,268.6z"/>
				</g>
			</g>
		</g>
	</g>
</g>
</svg>
